<svg width="257" height="95" viewBox="0 0 257 95" fill="none" xmlns="http://www.w3.org/2000/svg">
<g clip-path="url(#clip0_1_1323)">
<path d="M156.863 26.9648V27.989C155.736 28.0231 154.883 28.1597 154.303 28.3986C153.757 28.6036 153.381 29.0132 153.176 29.6278C153.006 30.2081 152.92 31.1299 152.92 32.393V57.7931C152.92 59.0223 153.006 59.944 153.176 60.5585C153.381 61.1731 153.757 61.5827 154.303 61.7875C154.883 61.9925 155.736 62.1289 156.863 62.1973V63.2214C156.044 63.1532 154.985 63.119 153.688 63.119C152.391 63.0849 150.991 63.0678 149.489 63.0678C147.952 63.0678 146.365 63.1019 144.726 63.1703C143.088 63.2044 141.5 63.2214 139.964 63.2214C139.076 63.2214 138.103 63.2044 137.045 63.1703C136.021 63.1362 134.996 63.119 133.972 63.119C132.948 63.0849 131.992 63.0678 131.105 63.0678C129.739 63.0678 128.237 63.1019 126.598 63.1703C124.993 63.2044 123.474 63.2214 122.04 63.2214C120.436 63.2214 118.831 63.2044 117.227 63.1703C115.622 63.1019 114.035 63.0678 112.464 63.0678C110.962 63.0678 109.562 63.0849 108.265 63.119C106.968 63.119 105.909 63.1532 105.09 63.2214V62.1973C106.216 62.1289 107.053 61.9925 107.599 61.7875C108.18 61.5827 108.555 61.1731 108.726 60.5585C108.931 59.944 109.033 59.0223 109.033 57.7931V32.393C109.033 31.1299 108.931 30.2081 108.726 29.6278C108.555 29.0132 108.18 28.6036 107.599 28.3986C107.053 28.1597 106.216 28.0231 105.09 27.989V26.9648C105.943 26.999 107.036 27.0331 108.367 27.0672C109.699 27.1014 111.133 27.1185 112.669 27.1185C113.932 27.1185 115.178 27.1014 116.407 27.0672C117.636 27.0331 118.661 26.999 119.48 26.9648V27.989C118.524 28.0231 117.807 28.1597 117.329 28.3986C116.851 28.6036 116.51 29.0132 116.305 29.6278C116.134 30.2081 116.049 31.1299 116.049 32.393V57.7931C116.049 59.0223 116.151 59.961 116.356 60.6097C116.561 61.2243 116.954 61.6511 117.534 61.89C118.148 62.0948 119.036 62.1973 120.197 62.1973H123.321C124.481 62.1973 125.352 62.0948 125.932 61.89C126.547 61.6511 126.957 61.2243 127.161 60.6097C127.366 59.961 127.469 59.0223 127.469 57.7931V32.393C127.469 31.1299 127.383 30.2081 127.213 29.6278C127.042 29.0132 126.718 28.6036 126.24 28.3986C125.762 28.1597 125.028 28.0231 124.038 27.989V26.9648C124.857 26.999 125.881 27.0331 127.11 27.0672C128.373 27.1014 129.619 27.1185 130.848 27.1185C132.282 27.1185 133.631 27.1014 134.894 27.0672C136.157 27.0331 137.164 26.999 137.915 26.9648V27.989C136.96 28.0231 136.226 28.1597 135.713 28.3986C135.201 28.6036 134.86 29.0132 134.689 29.6278C134.553 30.2081 134.484 31.1299 134.484 32.393V57.7931C134.484 59.0223 134.587 59.961 134.792 60.6097C135.031 61.2243 135.457 61.634 136.072 61.8388C136.686 62.0436 137.54 62.1632 138.632 62.1973H141.756C142.917 62.1973 143.788 62.0948 144.368 61.89C144.982 61.6511 145.392 61.2243 145.597 60.6097C145.802 59.961 145.904 59.0223 145.904 57.7931V32.393C145.904 31.1299 145.82 30.2081 145.648 29.6278C145.477 29.0132 145.153 28.6036 144.675 28.3986C144.197 28.1597 143.463 28.0231 142.473 27.989V26.9648C143.292 26.999 144.317 27.0331 145.546 27.0672C146.809 27.1014 148.056 27.1185 149.284 27.1185C150.821 27.1185 152.254 27.1014 153.586 27.0672C154.952 27.0331 156.044 26.999 156.863 26.9648ZM160.551 26.9648C161.404 26.999 162.497 27.0331 163.828 27.0672C165.16 27.1014 166.491 27.1185 167.822 27.1185C169.495 27.1185 171.083 27.1014 172.586 27.0672C174.087 27.0331 175.145 27.016 175.761 27.016C179.788 27.016 182.792 27.7672 184.773 29.2693C186.787 30.7715 187.794 32.7003 187.794 35.0561C187.794 36.2509 187.47 37.4458 186.821 38.6407C186.206 39.8355 185.199 40.911 183.8 41.867C182.434 42.8228 180.642 43.5398 178.422 44.0177V44.1201C181.427 44.3933 183.8 45.0077 185.542 45.9637C187.317 46.8855 188.579 47.995 189.33 49.2923C190.082 50.5556 190.457 51.887 190.457 53.2867C190.457 55.3693 189.91 57.1617 188.819 58.6638C187.76 60.1317 186.224 61.2584 184.209 62.0436C182.195 62.8289 179.772 63.2214 176.938 63.2214C176.186 63.2214 175.043 63.2044 173.507 63.1703C171.971 63.1019 170.111 63.0678 167.925 63.0678C166.525 63.0678 165.16 63.0849 163.828 63.119C162.497 63.119 161.404 63.1532 160.551 63.2214V62.1973C161.678 62.1289 162.513 61.9925 163.06 61.7875C163.64 61.5827 164.016 61.1731 164.186 60.5585C164.392 59.944 164.494 59.0223 164.494 57.7931V32.393C164.494 31.1299 164.392 30.2081 164.186 29.6278C164.016 29.0132 163.64 28.6036 163.06 28.3986C162.513 28.1597 161.678 28.0231 160.551 27.989V26.9648ZM174.889 27.989C173.489 27.989 172.568 28.2792 172.124 28.8596C171.714 29.44 171.51 30.6178 171.51 32.393V57.7931C171.51 58.9882 171.612 59.8928 171.817 60.5074C172.022 61.1218 172.38 61.5315 172.892 61.7363C173.405 61.9412 174.156 62.0436 175.145 62.0436C177.946 62.0436 179.959 61.2754 181.189 59.7392C182.451 58.1688 183.083 55.9496 183.083 53.0819C183.083 50.4531 182.4 48.4218 181.034 46.9879C179.704 45.5541 177.484 44.837 174.377 44.837H169.717C169.717 44.837 169.717 44.7006 169.717 44.4274C169.717 44.1201 169.717 43.9665 169.717 43.9665H174.121C175.863 43.9665 177.211 43.591 178.167 42.8398C179.123 42.0547 179.772 41.0304 180.113 39.7673C180.454 38.47 180.625 37.0874 180.625 35.6193C180.625 33.093 180.182 31.1981 179.294 29.935C178.406 28.6377 176.938 27.989 174.889 27.989ZM220.69 26.9648C220.554 28.3645 220.45 29.7301 220.382 31.0615C220.348 32.3589 220.331 33.349 220.331 34.0317C220.331 34.6804 220.348 35.312 220.382 35.9266C220.417 36.5069 220.45 37.0019 220.485 37.4117H219.308C219.034 35.0561 218.59 33.2124 217.975 31.8809C217.362 30.5153 216.525 29.5594 215.467 29.0132C214.442 28.4329 213.093 28.1427 211.422 28.1427H208.604C207.58 28.1427 206.795 28.2279 206.248 28.3986C205.703 28.5693 205.327 28.9279 205.123 29.4741C204.951 30.0203 204.866 30.8567 204.866 31.9834V58.2029C204.866 59.2953 204.951 60.1317 205.123 60.7122C205.327 61.2584 205.703 61.6168 206.248 61.7875C206.795 61.9582 207.58 62.0436 208.604 62.0436H211.524C213.264 62.0436 214.716 61.7193 215.876 61.0706C217.072 60.4219 218.026 59.3637 218.744 57.8956C219.461 56.3935 219.99 54.3451 220.331 51.7504H221.509C221.407 52.8087 221.356 54.1744 221.356 55.8473C221.356 56.5642 221.373 57.6054 221.407 58.971C221.475 60.3367 221.577 61.7534 221.714 63.2214C219.972 63.1532 218.01 63.119 215.825 63.119C213.64 63.0849 211.694 63.0678 209.987 63.0678C209.201 63.0678 208.161 63.0678 206.863 63.0678C205.599 63.0678 204.218 63.0849 202.715 63.119C201.247 63.119 199.745 63.1362 198.209 63.1703C196.706 63.1703 195.273 63.1873 193.907 63.2214V62.1973C195.034 62.1289 195.871 61.9925 196.416 61.7875C196.996 61.5827 197.372 61.1731 197.543 60.5585C197.748 59.944 197.85 59.0223 197.85 57.7931V32.393C197.85 31.1299 197.748 30.2081 197.543 29.6278C197.372 29.0132 196.996 28.6036 196.416 28.3986C195.871 28.1597 195.034 28.0231 193.907 27.989V26.9648C195.273 26.999 196.706 27.0331 198.209 27.0672C199.745 27.0672 201.247 27.0844 202.715 27.1185C204.218 27.1185 205.599 27.1185 206.863 27.1185C208.161 27.1185 209.201 27.1185 209.987 27.1185C211.557 27.1185 213.333 27.1185 215.314 27.1185C217.327 27.0844 219.12 27.0331 220.69 26.9648ZM212.445 44.4786C212.445 44.4786 212.445 44.6493 212.445 44.9907C212.445 45.3321 212.445 45.5028 212.445 45.5028H203.33C203.33 45.5028 203.33 45.3321 203.33 44.9907C203.33 44.6493 203.33 44.4786 203.33 44.4786H212.445ZM213.93 37.719C213.793 39.6648 213.725 41.1499 213.725 42.1741C213.76 43.1984 213.777 44.1372 213.777 44.9907C213.777 45.8441 213.793 46.783 213.828 47.8072C213.862 48.8314 213.948 50.3165 214.083 52.2625H212.905C212.735 51.1018 212.462 50.0094 212.086 48.985C211.745 47.9267 211.182 47.0903 210.397 46.4758C209.646 45.8271 208.553 45.5028 207.12 45.5028V44.4786C208.178 44.4786 209.031 44.2567 209.68 43.8129C210.363 43.3691 210.908 42.8057 211.318 42.1229C211.728 41.4061 212.035 40.672 212.241 39.921C212.48 39.1357 212.65 38.4018 212.752 37.719H213.93ZM225.914 26.9648C226.767 26.999 227.86 27.0331 229.191 27.0672C230.522 27.1014 231.854 27.1185 233.185 27.1185C234.858 27.1185 236.446 27.1014 237.947 27.0672C239.45 27.0331 240.508 27.016 241.122 27.016C245.698 27.016 249.094 27.9549 251.314 29.8326C253.566 31.7102 254.693 34.1342 254.693 37.1044C254.693 38.3334 254.472 39.6307 254.027 40.9963C253.584 42.3278 252.816 43.5739 251.724 44.7347C250.631 45.8613 249.129 46.783 247.217 47.4999C245.339 48.217 242.932 48.5754 239.997 48.5754H234.876V47.5513H239.484C241.635 47.5513 243.274 47.0903 244.4 46.1685C245.561 45.2468 246.329 44.0349 246.705 42.5327C247.115 41.0304 247.319 39.4089 247.319 37.6677C247.319 34.4244 246.79 32.0004 245.731 30.3958C244.673 28.7913 242.846 27.989 240.252 27.989C238.852 27.989 237.931 28.2792 237.487 28.8596C237.077 29.44 236.873 30.6178 236.873 32.393V57.5883C236.873 58.8857 237.008 59.8587 237.282 60.5074C237.555 61.156 238.084 61.5827 238.87 61.7875C239.654 61.9925 240.781 62.1118 242.249 62.1461V63.2214C241.259 63.1532 239.979 63.119 238.409 63.119C236.838 63.0849 235.217 63.0678 233.543 63.0678C232.109 63.0678 230.727 63.0849 229.396 63.119C228.064 63.119 226.904 63.1532 225.914 63.2214V62.1973C227.039 62.1289 227.876 61.9925 228.423 61.7875C229.003 61.5827 229.379 61.1731 229.549 60.5585C229.753 59.944 229.857 59.0223 229.857 57.7931V32.393C229.857 31.1299 229.753 30.2081 229.549 29.6278C229.379 29.0132 229.003 28.6036 228.423 28.3986C227.876 28.1597 227.039 28.0231 225.914 27.989V26.9648Z" fill="white"/>
<path d="M112.404 75.0788C112.366 75.47 112.339 75.8473 112.32 76.2105C112.311 76.5644 112.306 76.8394 112.306 77.035C112.306 77.2119 112.311 77.3889 112.32 77.5659C112.329 77.7335 112.339 77.8733 112.348 77.9851H112.026C111.915 77.3144 111.761 76.788 111.565 76.4061C111.37 76.0242 111.151 75.7541 110.909 75.5958C110.676 75.4374 110.424 75.3582 110.154 75.3582H109.693V80.8493C109.693 81.3059 109.809 81.6132 110.042 81.7716C110.285 81.9206 110.606 81.9951 111.007 81.9951V82.2885C110.774 82.2792 110.448 82.2698 110.028 82.2607C109.619 82.242 109.176 82.2327 108.701 82.2327C108.235 82.2327 107.788 82.242 107.36 82.2607C106.941 82.2698 106.61 82.2792 106.368 82.2885V81.9951C106.787 81.9951 107.108 81.9346 107.332 81.8134C107.565 81.6831 107.681 81.3897 107.681 80.9333V75.3582H107.164C106.913 75.3582 106.67 75.4374 106.438 75.5958C106.205 75.7541 105.995 76.0242 105.809 76.4061C105.632 76.788 105.483 77.3144 105.362 77.9851H105.04C105.059 77.8733 105.068 77.7335 105.068 77.5659C105.078 77.3982 105.082 77.2213 105.082 77.035C105.082 76.8394 105.073 76.5644 105.054 76.2105C105.045 75.8473 105.022 75.47 104.984 75.0788H106.466C106.726 75.0788 107.057 75.0881 107.457 75.1067C107.858 75.1161 108.263 75.1207 108.673 75.1207C109.102 75.1207 109.516 75.1161 109.917 75.1067C110.327 75.0881 110.662 75.0788 110.923 75.0788H112.404ZM116.707 74.8691C117.527 74.8691 118.17 75.1114 118.636 75.5958C119.101 76.0802 119.334 76.8719 119.334 77.9711H114.737L114.709 77.7055H117.574C117.583 77.2491 117.555 76.83 117.49 76.4481C117.425 76.0569 117.322 75.7448 117.182 75.512C117.043 75.279 116.856 75.1626 116.623 75.1626C116.298 75.1626 116.018 75.3675 115.785 75.7774C115.562 76.1872 115.427 76.8672 115.38 77.8173L115.422 77.9011C115.413 78.0129 115.403 78.1294 115.394 78.2506C115.394 78.3715 115.394 78.4973 115.394 78.6278C115.394 79.2705 115.482 79.7922 115.659 80.1926C115.846 80.5932 116.079 80.8866 116.358 81.0729C116.637 81.2499 116.922 81.3384 117.21 81.3384C117.406 81.3384 117.606 81.3105 117.811 81.2546C118.025 81.1894 118.24 81.0776 118.454 80.9193C118.668 80.7515 118.868 80.5187 119.055 80.2206L119.306 80.3044C119.194 80.6584 119.017 81.0031 118.775 81.3384C118.533 81.6738 118.226 81.9486 117.853 82.1629C117.48 82.377 117.033 82.4841 116.512 82.4841C115.878 82.4841 115.319 82.3491 114.835 82.0789C114.351 81.8088 113.969 81.399 113.689 80.8493C113.419 80.2998 113.284 79.6012 113.284 78.7535C113.284 77.8873 113.428 77.1653 113.717 76.5878C114.015 76.0102 114.421 75.5818 114.933 75.3024C115.455 75.0136 116.046 74.8691 116.707 74.8691ZM123.041 75.0648V75.3582C122.854 75.3582 122.714 75.4002 122.621 75.484C122.537 75.5678 122.542 75.6843 122.635 75.8333L126.31 81.2965C126.422 81.4642 126.538 81.6178 126.659 81.7576C126.79 81.8879 126.934 81.9672 127.092 81.9951V82.2885C126.953 82.2792 126.739 82.2698 126.45 82.2607C126.17 82.242 125.886 82.2327 125.597 82.2327C125.262 82.2327 124.917 82.242 124.564 82.2607C124.209 82.2698 123.949 82.2792 123.781 82.2885V81.9951C123.967 81.9951 124.102 81.9532 124.186 81.8694C124.279 81.7856 124.279 81.6691 124.186 81.52L120.511 76.0569C120.353 75.8239 120.218 75.6563 120.106 75.5538C120.004 75.442 119.878 75.3769 119.729 75.3582V75.0648C119.887 75.0741 120.125 75.0881 120.442 75.1067C120.758 75.1161 121.075 75.1207 121.392 75.1207C121.699 75.1207 122.011 75.1161 122.328 75.1067C122.645 75.0881 122.882 75.0741 123.041 75.0648ZM122.719 78.9212C122.719 78.9212 122.724 78.9491 122.733 79.005C122.752 79.0609 122.766 79.1169 122.775 79.1727C122.794 79.2285 122.803 79.2565 122.803 79.2565L122.244 79.9692C121.965 80.3324 121.811 80.6677 121.783 80.9751C121.755 81.2732 121.834 81.5153 122.02 81.7016C122.207 81.8787 122.463 81.9812 122.789 82.0091V82.2885C122.612 82.2792 122.393 82.2745 122.132 82.2745C121.881 82.2653 121.634 82.2607 121.392 82.2607C121.15 82.2513 120.945 82.2467 120.777 82.2467C120.572 82.2467 120.39 82.2513 120.232 82.2607C120.083 82.2607 119.939 82.2698 119.799 82.2885V82.0091C120.013 81.9252 120.218 81.8041 120.414 81.6458C120.609 81.4782 120.828 81.2406 121.07 80.9333L122.719 78.9212ZM126.687 75.0648V75.3442C126.492 75.4002 126.287 75.5212 126.073 75.7075C125.858 75.8939 125.635 76.1314 125.402 76.4201L123.865 78.3484C123.865 78.3484 123.856 78.325 123.837 78.2784C123.828 78.2226 123.814 78.1667 123.795 78.1108C123.786 78.0549 123.781 78.0269 123.781 78.0269L124.48 77.0908C124.731 76.7647 124.885 76.476 124.941 76.2245C124.997 75.9731 124.955 75.7681 124.815 75.6098C124.684 75.4513 124.452 75.3629 124.116 75.3442V75.0648C124.387 75.0741 124.661 75.0834 124.941 75.0928C125.22 75.1021 125.472 75.1067 125.695 75.1067C125.91 75.1067 126.096 75.1021 126.254 75.0928C126.412 75.0834 126.557 75.0741 126.687 75.0648ZM135.659 75.0788V75.3722C135.333 75.3722 135.101 75.442 134.961 75.5818C134.83 75.7215 134.765 75.987 134.765 76.3781V80.9891C134.765 81.3804 134.83 81.6458 134.961 81.7856C135.101 81.9252 135.333 81.9951 135.659 81.9951V82.2885C135.492 82.2792 135.226 82.2698 134.863 82.2607C134.509 82.242 134.16 82.2327 133.815 82.2327C133.461 82.2327 133.112 82.242 132.767 82.2607C132.432 82.2698 132.176 82.2792 131.999 82.2885V81.9951C132.278 81.9951 132.474 81.9252 132.585 81.7856C132.697 81.6458 132.753 81.3804 132.753 80.9891V76.3781C132.753 75.987 132.697 75.7215 132.585 75.5818C132.474 75.442 132.278 75.3722 131.999 75.3722V75.0788C132.166 75.0881 132.413 75.1021 132.739 75.1207C133.065 75.1301 133.396 75.1347 133.731 75.1347C134.094 75.1347 134.458 75.1301 134.821 75.1207C135.194 75.1021 135.473 75.0881 135.659 75.0788ZM131.09 75.0788V75.3722C130.82 75.3722 130.625 75.442 130.504 75.5818C130.392 75.7215 130.336 75.987 130.336 76.3781V80.9891C130.336 81.3804 130.392 81.6458 130.504 81.7856C130.625 81.9252 130.82 81.9951 131.09 81.9951V82.2885C130.923 82.2792 130.676 82.2698 130.35 82.2607C130.033 82.242 129.702 82.2327 129.358 82.2327C129.004 82.2327 128.641 82.242 128.268 82.2607C127.895 82.2698 127.616 82.2792 127.43 82.2885V81.9951C127.756 81.9951 127.984 81.9252 128.114 81.7856C128.254 81.6458 128.324 81.3804 128.324 80.9891V76.3781C128.324 75.987 128.254 75.7215 128.114 75.5818C127.984 75.442 127.756 75.3722 127.43 75.3722V75.0788C127.607 75.0881 127.872 75.1021 128.226 75.1207C128.589 75.1301 128.939 75.1347 129.274 75.1347C129.637 75.1347 129.987 75.1301 130.322 75.1207C130.667 75.1021 130.923 75.0881 131.09 75.0788ZM133.48 78.4322V78.7116H129.539V78.4322H133.48ZM144.808 75.0788V75.3722C144.481 75.3722 144.248 75.442 144.109 75.5818C143.978 75.7215 143.913 75.987 143.913 76.3781V80.9891C143.913 81.3804 143.978 81.6458 144.109 81.7856C144.248 81.9252 144.481 81.9951 144.808 81.9951V82.2885C144.64 82.2792 144.374 82.2698 144.011 82.2607C143.657 82.242 143.308 82.2327 142.963 82.2327C142.609 82.2327 142.26 82.242 141.915 82.2607C141.58 82.2698 141.324 82.2792 141.147 82.2885V81.9951C141.426 81.9951 141.622 81.9252 141.734 81.7856C141.845 81.6458 141.901 81.3804 141.901 80.9891V76.3781C141.901 75.987 141.845 75.7215 141.734 75.5818C141.622 75.442 141.426 75.3722 141.147 75.3722V75.0788C141.314 75.0881 141.561 75.1021 141.887 75.1207C142.213 75.1301 142.544 75.1347 142.879 75.1347C143.243 75.1347 143.606 75.1301 143.969 75.1207C144.342 75.1021 144.621 75.0881 144.808 75.0788ZM139.987 75.0788V75.3722C139.717 75.3722 139.521 75.442 139.4 75.5818C139.288 75.7215 139.232 75.987 139.232 76.3781V80.9891C139.232 81.3804 139.288 81.6458 139.4 81.7856C139.521 81.9252 139.717 81.9951 139.987 81.9951V82.2885C139.819 82.2792 139.572 82.2698 139.246 82.2607C138.93 82.242 138.599 82.2327 138.254 82.2327C137.9 82.2327 137.537 82.242 137.165 82.2607C136.792 82.2698 136.513 82.2792 136.326 82.2885V81.9951C136.652 81.9951 136.88 81.9252 137.011 81.7856C137.151 81.6458 137.22 81.3804 137.22 80.9891V76.3781C137.22 75.987 137.151 75.7215 137.011 75.5818C136.88 75.442 136.652 75.3722 136.326 75.3722V75.0788C136.503 75.0881 136.769 75.1021 137.123 75.1207C137.486 75.1301 137.835 75.1347 138.17 75.1347C138.534 75.1347 138.883 75.1301 139.218 75.1207C139.563 75.1021 139.819 75.0881 139.987 75.0788ZM142.069 75.9311L142.306 76.0709L138.981 81.7016L138.743 81.562L142.069 75.9311ZM153.153 75.0788V75.3722C152.827 75.3722 152.594 75.442 152.454 75.5818C152.324 75.7215 152.258 75.987 152.258 76.3781V80.9891C152.258 81.3804 152.324 81.6458 152.454 81.7856C152.594 81.9252 152.827 81.9951 153.153 81.9951V82.2885C152.976 82.2792 152.719 82.2698 152.384 82.2607C152.048 82.242 151.672 82.2327 151.253 82.2327C150.833 82.2327 150.4 82.242 149.954 82.2607C149.515 82.2698 149.175 82.2792 148.933 82.2885V81.9951C149.352 81.9951 149.674 81.9206 149.897 81.7716C150.13 81.6132 150.247 81.3059 150.247 80.8493V76.3781C150.247 75.987 150.191 75.7215 150.079 75.5818C149.967 75.442 149.772 75.3722 149.492 75.3722V75.0788C149.659 75.0881 149.907 75.1021 150.232 75.1207C150.559 75.1301 150.894 75.1347 151.238 75.1347C151.592 75.1347 151.951 75.1301 152.314 75.1207C152.687 75.1021 152.967 75.0881 153.153 75.0788ZM148.933 75.0788V75.3722C148.664 75.3722 148.467 75.442 148.346 75.5818C148.235 75.7215 148.178 75.987 148.178 76.3781V77.6637C148.178 77.9896 148.197 78.2645 148.235 78.488C148.272 78.7116 148.365 78.8793 148.514 78.9911C148.664 79.1029 148.895 79.1587 149.213 79.1587C149.428 79.1587 149.627 79.1354 149.814 79.0889C150.009 79.0422 150.172 78.9724 150.302 78.8793V79.1727C150.107 79.2845 149.809 79.3916 149.409 79.4941C149.008 79.5873 148.588 79.6338 148.151 79.6338C147.788 79.6338 147.476 79.5919 147.215 79.5081C146.954 79.4241 146.748 79.3078 146.6 79.1587C146.413 78.9724 146.292 78.7489 146.237 78.488C146.19 78.2179 146.167 77.9011 146.167 77.5379V76.3781C146.167 75.987 146.097 75.7215 145.957 75.5818C145.827 75.442 145.598 75.3722 145.272 75.3722V75.0788C145.449 75.0881 145.715 75.1021 146.069 75.1207C146.423 75.1301 146.777 75.1347 147.13 75.1347C147.476 75.1347 147.815 75.1301 148.151 75.1207C148.495 75.1021 148.756 75.0881 148.933 75.0788ZM157.424 74.8691C158.244 74.8691 158.886 75.1114 159.351 75.5958C159.818 76.0802 160.051 76.8719 160.051 77.9711H155.454L155.426 77.7055H158.29C158.299 77.2491 158.271 76.83 158.206 76.4481C158.142 76.0569 158.038 75.7448 157.9 75.512C157.76 75.279 157.573 75.1626 157.34 75.1626C157.013 75.1626 156.735 75.3675 156.502 75.7774C156.279 76.1872 156.143 76.8672 156.096 77.8173L156.139 77.9011C156.129 78.0129 156.12 78.1294 156.111 78.2506C156.111 78.3715 156.111 78.4973 156.111 78.6278C156.111 79.2705 156.199 79.7922 156.376 80.1926C156.563 80.5932 156.795 80.8866 157.075 81.0729C157.354 81.2499 157.639 81.3384 157.927 81.3384C158.123 81.3384 158.322 81.3105 158.528 81.2546C158.742 81.1894 158.956 81.0776 159.171 80.9193C159.385 80.7515 159.585 80.5187 159.771 80.2206L160.022 80.3044C159.911 80.6584 159.733 81.0031 159.491 81.3384C159.249 81.6738 158.942 81.9486 158.57 82.1629C158.197 82.377 157.749 82.4841 157.228 82.4841C156.595 82.4841 156.035 82.3491 155.551 82.0789C155.067 81.8088 154.685 81.399 154.406 80.8493C154.136 80.2998 154 79.6012 154 78.7535C154 77.8873 154.145 77.1653 154.433 76.5878C154.732 76.0102 155.137 75.5818 155.649 75.3024C156.171 75.0136 156.763 74.8691 157.424 74.8691ZM164.493 74.8691C164.856 74.8691 165.187 74.9111 165.484 74.9949C165.792 75.0694 166.044 75.1672 166.239 75.2884C166.481 75.4374 166.668 75.6236 166.797 75.8473C166.937 76.0615 167.007 76.313 167.007 76.6018C167.007 76.9278 166.905 77.198 166.7 77.4122C166.496 77.617 166.23 77.7195 165.904 77.7195C165.577 77.7195 165.316 77.6264 165.121 77.4401C164.926 77.2538 164.828 77.0023 164.828 76.6856C164.828 76.3875 164.921 76.1407 165.108 75.9451C165.293 75.7401 165.507 75.6051 165.751 75.5398C165.675 75.4467 165.564 75.3675 165.415 75.3024C165.265 75.2371 165.098 75.2046 164.911 75.2046C164.623 75.2046 164.367 75.2884 164.143 75.456C163.929 75.6236 163.748 75.8566 163.598 76.1547C163.449 76.4528 163.332 76.802 163.249 77.2026C163.175 77.6032 163.137 78.0409 163.137 78.516C163.137 79.2332 163.226 79.7967 163.402 80.2066C163.589 80.6165 163.822 80.9053 164.102 81.0729C164.391 81.2406 164.688 81.3244 164.996 81.3244C165.172 81.3244 165.363 81.2965 165.569 81.2406C165.783 81.1847 165.997 81.0729 166.211 80.9053C166.434 80.7377 166.64 80.5001 166.827 80.1926L167.064 80.2764C166.961 80.6212 166.793 80.9658 166.561 81.3105C166.328 81.6551 166.025 81.9392 165.652 82.1629C165.28 82.377 164.824 82.4841 164.283 82.4841C163.678 82.4841 163.128 82.3538 162.634 82.0929C162.15 81.8228 161.758 81.4129 161.461 80.8633C161.172 80.3044 161.028 79.5873 161.028 78.7116C161.028 77.8733 161.177 77.17 161.474 76.6018C161.781 76.0242 162.197 75.5911 162.719 75.3024C163.239 75.0136 163.831 74.8691 164.493 74.8691ZM174.233 74.8691C174.689 74.8691 175.02 74.9763 175.224 75.1906C175.439 75.4048 175.546 75.6656 175.546 75.9731C175.546 76.299 175.449 76.5599 175.252 76.7554C175.057 76.951 174.806 77.0488 174.498 77.0488C174.321 77.0488 174.144 77.0117 173.968 76.9372C173.79 76.8625 173.646 76.7509 173.533 76.6018C173.423 76.4435 173.366 76.2478 173.366 76.0149C173.366 75.8752 173.404 75.7354 173.478 75.5958C173.552 75.456 173.673 75.3395 173.841 75.2464C173.618 75.2744 173.442 75.3582 173.31 75.498C173.189 75.6283 173.087 75.8193 173.003 76.0709C172.928 76.313 172.835 76.6204 172.724 76.993C172.649 77.2538 172.561 77.4914 172.458 77.7055C172.366 77.9105 172.23 78.0874 172.052 78.2366C171.885 78.3762 171.647 78.4787 171.341 78.544L171.396 78.4462C172.105 78.353 172.686 78.3762 173.143 78.516C173.609 78.6556 173.962 78.8886 174.205 79.2147C174.391 79.4568 174.535 79.7549 174.638 80.1088C174.74 80.4627 174.87 80.8355 175.029 81.2266C175.131 81.4688 175.234 81.6505 175.337 81.7716C175.449 81.8926 175.621 81.9672 175.854 81.9951V82.2885C175.686 82.3165 175.519 82.3351 175.351 82.3445C175.183 82.363 175.02 82.3723 174.861 82.3723C174.321 82.3723 173.893 82.2698 173.576 82.065C173.259 81.8508 173.041 81.4968 172.92 81.0031C172.892 80.8726 172.845 80.7003 172.78 80.4861C172.724 80.2626 172.644 80.0343 172.542 79.8014C172.449 79.5593 172.337 79.359 172.207 79.2007C172.048 79.0051 171.844 78.8653 171.592 78.7814C171.341 78.6976 171.023 78.6743 170.641 78.7116V78.4602C171.08 78.4322 171.415 78.3577 171.647 78.2366C171.88 78.1061 172.058 77.9198 172.179 77.6777C172.3 77.4354 172.411 77.1281 172.514 76.7554C172.625 76.3921 172.737 76.0662 172.85 75.7774C172.961 75.4887 173.119 75.2651 173.325 75.1067C173.539 74.9483 173.841 74.8691 174.233 74.8691ZM171.536 75.0788V75.3722C171.229 75.3722 171.01 75.442 170.879 75.5818C170.758 75.7215 170.698 75.987 170.698 76.3781V80.9891C170.698 81.3804 170.758 81.6458 170.879 81.7856C171.01 81.9252 171.229 81.9951 171.536 81.9951V82.2885C171.359 82.2792 171.089 82.2698 170.726 82.2607C170.363 82.242 170.009 82.2327 169.663 82.2327C169.31 82.2327 168.952 82.242 168.587 82.2607C168.233 82.2698 167.968 82.2792 167.792 82.2885V81.9951C168.118 81.9951 168.345 81.9252 168.477 81.7856C168.615 81.6458 168.685 81.3804 168.685 80.9891V76.3781C168.685 75.987 168.615 75.7215 168.477 75.5818C168.345 75.442 168.118 75.3722 167.792 75.3722V75.0788C167.978 75.0881 168.257 75.1021 168.63 75.1207C169.012 75.1301 169.375 75.1347 169.72 75.1347C170.074 75.1347 170.423 75.1301 170.768 75.1207C171.112 75.1021 171.369 75.0881 171.536 75.0788ZM179.842 74.8691C180.523 74.8691 181.119 74.9949 181.631 75.2464C182.144 75.498 182.543 75.9031 182.832 76.4621C183.122 77.021 183.266 77.7615 183.266 78.6836C183.266 79.6058 183.122 80.3464 182.832 80.9053C182.543 81.4548 182.144 81.8554 181.631 82.1069C181.119 82.3585 180.523 82.4841 179.842 82.4841C179.18 82.4841 178.59 82.3585 178.068 82.1069C177.555 81.8554 177.15 81.4548 176.853 80.9053C176.564 80.3464 176.42 79.6058 176.42 78.6836C176.42 77.7615 176.564 77.021 176.853 76.4621C177.15 75.9031 177.555 75.498 178.068 75.2464C178.59 74.9949 179.18 74.8691 179.842 74.8691ZM179.842 75.1486C179.471 75.1486 179.157 75.428 178.906 75.987C178.654 76.5366 178.529 77.4354 178.529 78.6836C178.529 79.9319 178.654 80.8308 178.906 81.3804C179.157 81.9299 179.471 82.2047 179.842 82.2047C180.224 82.2047 180.536 81.9299 180.778 81.3804C181.03 80.8308 181.156 79.9319 181.156 78.6836C181.156 77.4354 181.03 76.5366 180.778 75.987C180.536 75.428 180.224 75.1486 179.842 75.1486ZM187.743 74.8691C188.562 74.8691 189.205 75.1114 189.671 75.5958C190.136 76.0802 190.37 76.8719 190.37 77.9711H185.772L185.744 77.7055H188.609C188.619 77.2491 188.59 76.83 188.526 76.4481C188.46 76.0569 188.358 75.7448 188.218 75.512C188.078 75.279 187.892 75.1626 187.658 75.1626C187.333 75.1626 187.053 75.3675 186.82 75.7774C186.597 76.1872 186.462 76.8672 186.415 77.8173L186.457 77.9011C186.449 78.0129 186.438 78.1294 186.43 78.2506C186.43 78.3715 186.43 78.4973 186.43 78.6278C186.43 79.2705 186.519 79.7922 186.695 80.1926C186.881 80.5932 187.115 80.8866 187.393 81.0729C187.673 81.2499 187.957 81.3384 188.246 81.3384C188.441 81.3384 188.642 81.3105 188.846 81.2546C189.061 81.1894 189.275 81.0776 189.489 80.9193C189.704 80.7515 189.905 80.5187 190.09 80.2206L190.342 80.3044C190.23 80.6584 190.053 81.0031 189.811 81.3384C189.568 81.6738 189.262 81.9486 188.889 82.1629C188.516 82.377 188.069 82.4841 187.548 82.4841C186.914 82.4841 186.355 82.3491 185.871 82.0789C185.386 81.8088 185.004 81.399 184.726 80.8493C184.454 80.2998 184.32 79.6012 184.32 78.7535C184.32 77.8873 184.465 77.1653 184.753 76.5878C185.051 76.0102 185.456 75.5818 185.969 75.3024C186.491 75.0136 187.081 74.8691 187.743 74.8691ZM197.291 74.9111V83.4343C197.291 83.8721 197.402 84.1609 197.626 84.3006C197.849 84.4497 198.157 84.5242 198.547 84.5242V84.8176C198.305 84.8083 197.97 84.7943 197.542 84.7756C197.123 84.7663 196.676 84.7616 196.2 84.7616C195.856 84.7616 195.515 84.7663 195.18 84.7756C194.855 84.7943 194.607 84.8083 194.44 84.8176V84.5242C194.747 84.5242 194.961 84.4589 195.082 84.3285C195.214 84.1981 195.278 83.9466 195.278 83.574V76.5878C195.278 76.1687 195.214 75.8612 195.082 75.6656C194.953 75.4607 194.719 75.3582 194.384 75.3582V75.0648C194.682 75.0928 194.972 75.1067 195.25 75.1067C195.632 75.1067 195.995 75.0928 196.34 75.0648C196.684 75.0276 197.002 74.9763 197.291 74.9111ZM199.456 74.8691C199.931 74.8691 200.355 74.9996 200.728 75.2604C201.1 75.512 201.399 75.8984 201.622 76.4201C201.845 76.9325 201.957 77.5752 201.957 78.3484C201.957 79.0284 201.878 79.6244 201.719 80.1368C201.571 80.6492 201.352 81.0823 201.063 81.4362C200.783 81.7809 200.444 82.0417 200.043 82.2187C199.652 82.3956 199.209 82.4841 198.715 82.4841C198.352 82.4841 198.021 82.419 197.724 82.2885C197.425 82.1675 197.198 81.9904 197.039 81.7576L197.179 81.576C197.272 81.7436 197.402 81.8741 197.569 81.9672C197.747 82.0604 197.947 82.1069 198.171 82.1069C198.59 82.1069 198.921 81.9672 199.163 81.6878C199.405 81.399 199.576 80.9984 199.68 80.4861C199.791 79.9645 199.848 79.345 199.848 78.6278C199.848 77.8267 199.797 77.1979 199.693 76.7415C199.591 76.285 199.451 75.9591 199.275 75.7634C199.097 75.5678 198.883 75.47 198.632 75.47C198.297 75.47 197.989 75.6005 197.709 75.8612C197.44 76.122 197.285 76.4946 197.249 76.979L197.179 76.4899C197.346 75.9591 197.63 75.5585 198.031 75.2884C198.441 75.0089 198.916 74.8691 199.456 74.8691ZM206.423 74.8691C207.243 74.8691 207.885 75.1114 208.35 75.5958C208.817 76.0802 209.05 76.8719 209.05 77.9711H204.452L204.425 77.7055H207.289C207.298 77.2491 207.27 76.83 207.205 76.4481C207.14 76.0569 207.037 75.7448 206.899 75.512C206.759 75.279 206.572 75.1626 206.339 75.1626C206.014 75.1626 205.734 75.3675 205.501 75.7774C205.278 76.1872 205.142 76.8672 205.095 77.8173L205.138 77.9011C205.127 78.0129 205.119 78.1294 205.11 78.2506C205.11 78.3715 205.11 78.4973 205.11 78.6278C205.11 79.2705 205.197 79.7922 205.375 80.1926C205.562 80.5932 205.794 80.8866 206.073 81.0729C206.353 81.2499 206.638 81.3384 206.926 81.3384C207.122 81.3384 207.321 81.3105 207.527 81.2546C207.741 81.1894 207.955 81.0776 208.17 80.9193C208.384 80.7515 208.584 80.5187 208.77 80.2206L209.022 80.3044C208.91 80.6584 208.732 81.0031 208.49 81.3384C208.248 81.6738 207.941 81.9486 207.569 82.1629C207.196 82.377 206.748 82.4841 206.228 82.4841C205.594 82.4841 205.036 82.3491 204.55 82.0789C204.066 81.8088 203.684 81.399 203.404 80.8493C203.135 80.2998 202.999 79.6012 202.999 78.7535C202.999 77.8873 203.143 77.1653 203.432 76.5878C203.731 76.0102 204.136 75.5818 204.648 75.3024C205.17 75.0136 205.761 74.8691 206.423 74.8691ZM222.085 75.0788V75.3722C221.758 75.3722 221.526 75.442 221.387 75.5818C221.255 75.7215 221.19 75.987 221.19 76.3781V80.9891C221.19 81.3804 221.255 81.6458 221.387 81.7856C221.526 81.9252 221.758 81.9951 222.085 81.9951V82.2885C221.973 82.2792 221.815 82.2745 221.61 82.2745C221.404 82.2653 221.185 82.256 220.954 82.2467C220.72 82.2373 220.496 82.2327 220.282 82.2327C219.919 82.2327 219.575 82.242 219.248 82.2607C218.922 82.2792 218.545 82.2885 218.117 82.2885C217.688 82.2885 217.306 82.2792 216.971 82.2607C216.636 82.242 216.318 82.2327 216.021 82.2327C215.713 82.2327 215.392 82.242 215.057 82.2607C214.731 82.2792 214.349 82.2885 213.911 82.2885C213.632 82.2885 213.375 82.2838 213.142 82.2745C212.91 82.2653 212.681 82.256 212.458 82.2467C212.244 82.2373 212.006 82.2327 211.745 82.2327C211.531 82.2327 211.298 82.2373 211.047 82.2467C210.804 82.256 210.576 82.2653 210.362 82.2745C210.156 82.2745 209.989 82.2792 209.859 82.2885V81.9951C210.184 81.9951 210.413 81.9252 210.543 81.7856C210.683 81.6458 210.753 81.3804 210.753 80.9891V76.3781C210.753 75.987 210.683 75.7215 210.543 75.5818C210.413 75.442 210.184 75.3722 209.859 75.3722V75.0788C210.035 75.0881 210.301 75.1021 210.655 75.1207C211.018 75.1301 211.368 75.1347 211.703 75.1347C212.057 75.1347 212.397 75.1301 212.723 75.1207C213.059 75.1021 213.305 75.0881 213.464 75.0788V75.3722C213.212 75.3722 213.031 75.442 212.919 75.5818C212.817 75.7215 212.766 75.987 212.766 76.3781V80.9891C212.766 81.3804 212.825 81.6458 212.946 81.7856C213.067 81.9252 213.273 81.9951 213.562 81.9951H214.218C214.497 81.9951 214.693 81.9252 214.805 81.7856C214.917 81.6458 214.973 81.3804 214.973 80.9891V76.3781C214.973 75.987 214.922 75.7215 214.82 75.5818C214.716 75.442 214.535 75.3722 214.274 75.3722V75.0788C214.432 75.0881 214.669 75.1021 214.987 75.1207C215.304 75.1301 215.62 75.1347 215.936 75.1347C216.263 75.1347 216.594 75.1301 216.929 75.1207C217.264 75.1021 217.516 75.0881 217.684 75.0788V75.3722C217.423 75.3722 217.241 75.442 217.139 75.5818C217.035 75.7215 216.984 75.987 216.984 76.3781V80.9891C216.984 81.3804 217.041 81.6458 217.152 81.7856C217.264 81.9252 217.459 81.9951 217.739 81.9951H218.424C218.703 81.9951 218.898 81.9252 219.01 81.7856C219.123 81.6458 219.178 81.3804 219.178 80.9891V76.3781C219.178 75.987 219.127 75.7215 219.025 75.5818C218.922 75.442 218.741 75.3722 218.48 75.3722V75.0788C218.639 75.0881 218.876 75.1021 219.193 75.1207C219.509 75.1301 219.836 75.1347 220.171 75.1347C220.515 75.1347 220.873 75.1301 221.247 75.1207C221.618 75.1021 221.898 75.0881 222.085 75.0788ZM226.359 74.8691C227.178 74.8691 227.821 75.1114 228.286 75.5958C228.752 76.0802 228.985 76.8719 228.985 77.9711H224.388L224.36 77.7055H227.225C227.233 77.2491 227.206 76.83 227.14 76.4481C227.076 76.0569 226.972 75.7448 226.834 75.512C226.694 75.279 226.507 75.1626 226.274 75.1626C225.948 75.1626 225.669 75.3675 225.436 75.7774C225.213 76.1872 225.077 76.8672 225.031 77.8173L225.073 77.9011C225.063 78.0129 225.054 78.1294 225.045 78.2506C225.045 78.3715 225.045 78.4973 225.045 78.6278C225.045 79.2705 225.133 79.7922 225.311 80.1926C225.497 80.5932 225.729 80.8866 226.009 81.0729C226.289 81.2499 226.573 81.3384 226.862 81.3384C227.057 81.3384 227.257 81.3105 227.462 81.2546C227.676 81.1894 227.891 81.0776 228.105 80.9193C228.319 80.7515 228.519 80.5187 228.706 80.2206L228.956 80.3044C228.846 80.6584 228.668 81.0031 228.426 81.3384C228.184 81.6738 227.876 81.9486 227.504 82.1629C227.131 82.377 226.684 82.4841 226.162 82.4841C225.529 82.4841 224.97 82.3491 224.486 82.0789C224.002 81.8088 223.62 81.399 223.34 80.8493C223.07 80.2998 222.935 79.6012 222.935 78.7535C222.935 77.8873 223.079 77.1653 223.368 76.5878C223.666 76.0102 224.072 75.5818 224.583 75.3024C225.105 75.0136 225.697 74.8691 226.359 74.8691ZM238.023 75.0788V75.3722C237.698 75.3722 237.465 75.442 237.325 75.5818C237.195 75.7215 237.13 75.987 237.13 76.3781V80.9891C237.13 81.3804 237.195 81.6458 237.325 81.7856C237.465 81.9252 237.698 81.9951 238.023 81.9951V82.2885C237.855 82.2792 237.59 82.2698 237.227 82.2607C236.873 82.242 236.525 82.2327 236.179 82.2327C235.825 82.2327 235.477 82.242 235.131 82.2607C234.796 82.2698 234.541 82.2792 234.363 82.2885V81.9951C234.643 81.9951 234.838 81.9252 234.95 81.7856C235.061 81.6458 235.118 81.3804 235.118 80.9891V76.3781C235.118 75.987 235.061 75.7215 234.95 75.5818C234.838 75.442 234.643 75.3722 234.363 75.3722V75.0788C234.531 75.0881 234.777 75.1021 235.103 75.1207C235.43 75.1301 235.761 75.1347 236.096 75.1347C236.459 75.1347 236.822 75.1301 237.185 75.1207C237.558 75.1021 237.838 75.0881 238.023 75.0788ZM233.455 75.0788V75.3722C233.185 75.3722 232.99 75.442 232.867 75.5818C232.757 75.7215 232.7 75.987 232.7 76.3781V80.9891C232.7 81.3804 232.757 81.6458 232.867 81.7856C232.99 81.9252 233.185 81.9951 233.455 81.9951V82.2885C233.287 82.2792 233.041 82.2698 232.714 82.2607C232.398 82.242 232.067 82.2327 231.722 82.2327C231.369 82.2327 231.004 82.242 230.633 82.2607C230.259 82.2698 229.981 82.2792 229.794 82.2885V81.9951C230.12 81.9951 230.348 81.9252 230.478 81.7856C230.618 81.6458 230.688 81.3804 230.688 80.9891V76.3781C230.688 75.987 230.618 75.7215 230.478 75.5818C230.348 75.442 230.12 75.3722 229.794 75.3722V75.0788C229.971 75.0881 230.236 75.1021 230.59 75.1207C230.953 75.1301 231.303 75.1347 231.638 75.1347C232.001 75.1347 232.351 75.1301 232.687 75.1207C233.031 75.1021 233.287 75.0881 233.455 75.0788ZM235.844 78.4322V78.7116H231.904V78.4322H235.844ZM247.172 75.0788V75.3722C246.845 75.3722 246.613 75.442 246.473 75.5818C246.342 75.7215 246.278 75.987 246.278 76.3781V80.9891C246.278 81.3804 246.342 81.6458 246.473 81.7856C246.613 81.9252 246.845 81.9951 247.172 81.9951V82.2885C247.004 82.2792 246.739 82.2698 246.376 82.2607C246.022 82.242 245.672 82.2327 245.328 82.2327C244.973 82.2327 244.624 82.242 244.28 82.2607C243.944 82.2698 243.688 82.2792 243.511 82.2885V81.9951C243.79 81.9951 243.987 81.9252 244.097 81.7856C244.21 81.6458 244.265 81.3804 244.265 80.9891V76.3781C244.265 75.987 244.21 75.7215 244.097 75.5818C243.987 75.442 243.79 75.3722 243.511 75.3722V75.0788C243.679 75.0881 243.925 75.1021 244.252 75.1207C244.577 75.1301 244.908 75.1347 245.243 75.1347C245.608 75.1347 245.97 75.1301 246.333 75.1207C246.707 75.1021 246.985 75.0881 247.172 75.0788ZM242.351 75.0788V75.3722C242.081 75.3722 241.886 75.442 241.765 75.5818C241.653 75.7215 241.597 75.987 241.597 76.3781V80.9891C241.597 81.3804 241.653 81.6458 241.765 81.7856C241.886 81.9252 242.081 81.9951 242.351 81.9951V82.2885C242.183 82.2792 241.937 82.2698 241.611 82.2607C241.294 82.242 240.963 82.2327 240.619 82.2327C240.265 82.2327 239.902 82.242 239.529 82.2607C239.156 82.2698 238.877 82.2792 238.691 82.2885V81.9951C239.017 81.9951 239.245 81.9252 239.376 81.7856C239.514 81.6458 239.584 81.3804 239.584 80.9891V76.3781C239.584 75.987 239.514 75.7215 239.376 75.5818C239.245 75.442 239.017 75.3722 238.691 75.3722V75.0788C238.867 75.0881 239.132 75.1021 239.487 75.1207C239.85 75.1301 240.199 75.1347 240.535 75.1347C240.898 75.1347 241.248 75.1301 241.583 75.1207C241.927 75.1021 242.183 75.0881 242.351 75.0788ZM244.433 75.9311L244.67 76.0709L241.345 81.7016L241.108 81.562L244.433 75.9311ZM251.451 74.8691C252.271 74.8691 252.913 75.1114 253.38 75.5958C253.845 76.0802 254.078 76.8719 254.078 77.9711H249.481L249.453 77.7055H252.317C252.327 77.2491 252.298 76.83 252.234 76.4481C252.169 76.0569 252.067 75.7448 251.927 75.512C251.787 75.279 251.6 75.1626 251.367 75.1626C251.042 75.1626 250.762 75.3675 250.529 75.7774C250.306 76.1872 250.17 76.8672 250.123 77.8173L250.166 77.9011C250.157 78.0129 250.147 78.1294 250.138 78.2506C250.138 78.3715 250.138 78.4973 250.138 78.6278C250.138 79.2705 250.227 79.7922 250.403 80.1926C250.59 80.5932 250.823 80.8866 251.102 81.0729C251.381 81.2499 251.666 81.3384 251.954 81.3384C252.15 81.3384 252.351 81.3105 252.555 81.2546C252.769 81.1894 252.983 81.0776 253.198 80.9193C253.412 80.7515 253.612 80.5187 253.798 80.2206L254.05 80.3044C253.938 80.6584 253.762 81.0031 253.518 81.3384C253.276 81.6738 252.969 81.9486 252.597 82.1629C252.224 82.377 251.778 82.4841 251.256 82.4841C250.622 82.4841 250.064 82.3491 249.578 82.0789C249.094 81.8088 248.712 81.399 248.433 80.8493C248.163 80.2998 248.027 79.6012 248.027 78.7535C248.027 77.8873 248.173 77.1653 248.462 76.5878C248.759 76.0102 249.164 75.5818 249.677 75.3024C250.198 75.0136 250.79 74.8691 251.451 74.8691Z" fill="white"/>
<path d="M47.1488 92.3407C72.1076 92.3407 92.3407 72.1076 92.3407 47.1488C92.3407 22.1901 72.1076 1.95703 47.1488 1.95703C22.1901 1.95703 1.95703 22.1901 1.95703 47.1488C1.95703 72.1076 22.1901 92.3407 47.1488 92.3407Z" fill="#086084" stroke="white" stroke-width="3.91425"/>
<path d="M74.1615 28.7051C74.0251 30.1048 73.9226 31.4705 73.8544 32.8019C73.8203 34.0991 73.8032 35.0892 73.8032 35.772C73.8032 36.4206 73.8203 37.0523 73.8544 37.6668C73.8885 38.2471 73.9226 38.7422 73.9569 39.1519H72.7789C72.5059 36.7963 72.062 34.9527 71.4476 33.6211C70.833 32.2556 69.9965 31.2998 68.9382 30.7534C67.914 30.1731 66.5655 29.8829 64.8926 29.8829H62.0761C61.0519 29.8829 60.2667 29.9683 59.7205 30.139C59.1743 30.3097 58.7986 30.6682 58.5938 31.2143C58.4231 31.7605 58.3378 32.597 58.3378 33.7236V59.9431C58.3378 61.0355 58.4231 61.8721 58.5938 62.4524C58.7986 62.9987 59.1743 63.357 59.7205 63.5277C60.2667 63.6984 61.0519 63.7839 62.0761 63.7839H64.9951C66.7362 63.7839 68.1872 63.4595 69.3478 62.8109C70.5428 62.1622 71.4988 61.1039 72.2156 59.6359C72.9325 58.1337 73.4618 56.0852 73.8032 53.4907H74.981C74.8786 54.5489 74.8274 55.9145 74.8274 57.5875C74.8274 58.3044 74.8445 59.3456 74.8786 60.7112C74.9468 62.0769 75.0493 63.4936 75.1858 64.9617C73.4446 64.8933 71.4817 64.8593 69.2968 64.8593C67.1117 64.8251 65.1657 64.808 63.4589 64.808C62.6736 64.808 61.6322 64.808 60.335 64.808C59.0718 64.808 57.6892 64.8251 56.187 64.8593C54.719 64.8593 53.2168 64.8764 51.6804 64.9105C50.1783 64.9105 48.7445 64.9276 47.3789 64.9617V63.9375C48.5054 63.8693 49.3418 63.7327 49.8882 63.5277C50.4685 63.3231 50.844 62.9133 51.0147 62.2988C51.2196 61.6842 51.322 60.7625 51.322 59.5334V34.1334C51.322 32.8701 51.2196 31.9483 51.0147 31.368C50.844 30.7534 50.4685 30.3438 49.8882 30.139C49.3418 29.8999 48.5054 29.7634 47.3789 29.7293V28.7051C48.7445 28.7392 50.1783 28.7733 51.6804 28.8076C53.2168 28.8076 54.719 28.8246 56.187 28.8587C57.6892 28.8587 59.0718 28.8587 60.335 28.8587C61.6322 28.8587 62.6736 28.8587 63.4589 28.8587C65.0291 28.8587 66.8046 28.8587 68.7845 28.8587C70.7988 28.8246 72.5913 28.7733 74.1615 28.7051ZM65.917 46.2188C65.917 46.2188 65.917 46.3895 65.917 46.731C65.917 47.0724 65.917 47.243 65.917 47.243H56.8014C56.8014 47.243 56.8014 47.0724 56.8014 46.731C56.8014 46.3895 56.8014 46.2188 56.8014 46.2188H65.917ZM67.4019 39.4592C67.2653 41.4051 67.1971 42.8903 67.1971 43.9145C67.2312 44.9385 67.2483 45.8774 67.2483 46.731C67.2483 47.5844 67.2653 48.5233 67.2996 49.5476C67.3335 50.5718 67.419 52.0567 67.5556 54.0027H66.3777C66.207 52.842 65.934 51.7494 65.5584 50.7254C65.217 49.667 64.6537 48.8306 63.8685 48.216C63.1175 47.5673 62.0249 47.243 60.591 47.243V46.2188C61.6493 46.2188 62.5029 45.997 63.1516 45.5531C63.8344 45.1092 64.3806 44.546 64.7902 43.8632C65.1999 43.1463 65.5071 42.4123 65.712 41.6612C65.9509 40.8759 66.1216 40.142 66.2241 39.4592H67.4019Z" fill="white"/>
<path d="M19.9423 28.7051C20.0789 30.1048 20.1812 31.4705 20.2496 32.8019C20.2835 34.0991 20.3007 35.0892 20.3007 35.772C20.3007 36.4206 20.2835 37.0523 20.2496 37.6668C20.2153 38.2471 20.1812 38.7422 20.1471 39.1519H21.3249C21.5981 36.7963 22.0418 34.9527 22.6564 33.6211C23.2709 32.2556 24.1074 31.2998 25.1656 30.7534C26.1898 30.1731 27.5385 29.8829 29.2113 29.8829H32.0279C33.052 29.8829 33.8372 29.9683 34.3835 30.139C34.9297 30.3097 35.3052 30.6682 35.51 31.2143C35.6807 31.7605 35.7661 32.597 35.7661 33.7236V59.9431C35.7661 61.0355 35.6807 61.8721 35.51 62.4524C35.3052 62.9987 34.9297 63.357 34.3835 63.5277C33.8372 63.6984 33.052 63.7839 32.0279 63.7839H29.1087C27.3678 63.7839 25.9168 63.4595 24.756 62.8109C23.561 62.1622 22.6051 61.1039 21.8882 59.6359C21.1713 58.1337 20.6421 56.0852 20.3007 53.4907H19.1229C19.2253 54.5489 19.2766 55.9145 19.2766 57.5875C19.2766 58.3044 19.2595 59.3456 19.2253 60.7112C19.157 62.0769 19.0546 63.4936 18.918 64.9617C20.6592 64.8933 22.6221 64.8593 24.8072 64.8593C26.9921 64.8251 28.9381 64.808 30.6451 64.808C31.4302 64.808 32.4716 64.808 33.7689 64.808C35.032 64.808 36.4148 64.8251 37.9169 64.8593C39.385 64.8593 40.8871 64.8764 42.4234 64.9105C43.9256 64.9105 45.3595 64.9276 46.7251 64.9617V63.9375C45.5984 63.8693 44.762 63.7327 44.2158 63.5277C43.6353 63.3231 43.2598 62.9133 43.0891 62.2988C42.8843 61.6842 42.7819 60.7625 42.7819 59.5334V34.1334C42.7819 32.8701 42.8843 31.9483 43.0891 31.368C43.2598 30.7534 43.6353 30.3438 44.2158 30.139C44.762 29.8999 45.5984 29.7634 46.7251 29.7293V28.7051C45.3595 28.7392 43.9256 28.7733 42.4234 28.8076C40.8871 28.8076 39.385 28.8246 37.9169 28.8587C36.4148 28.8587 35.032 28.8587 33.7689 28.8587C32.4716 28.8587 31.4302 28.8587 30.6451 28.8587C29.0747 28.8587 27.2994 28.8587 25.3193 28.8587C23.305 28.8246 21.5127 28.7733 19.9423 28.7051ZM28.187 46.2188C28.187 46.2188 28.187 46.3895 28.187 46.731C28.187 47.0724 28.187 47.243 28.187 47.243H37.3024C37.3024 47.243 37.3024 47.0724 37.3024 46.731C37.3024 46.3895 37.3024 46.2188 37.3024 46.2188H28.187ZM26.7019 39.4592C26.8385 41.4051 26.9069 42.8903 26.9069 43.9145C26.8727 44.9385 26.8555 45.8774 26.8555 46.731C26.8555 47.5844 26.8385 48.5233 26.8044 49.5476C26.7703 50.5718 26.6848 52.0567 26.5483 54.0027H27.7261C27.8968 52.842 28.1699 51.7494 28.5454 50.7254C28.887 49.667 29.4502 48.8306 30.2355 48.216C30.9865 47.5673 32.079 47.243 33.5128 47.243V46.2188C32.4545 46.2188 31.6011 45.997 30.9522 45.5531C30.2696 45.1092 29.7233 44.546 29.3137 43.8632C28.904 43.1463 28.5968 42.4123 28.3918 41.6612C28.1529 40.8759 27.9822 40.142 27.8797 39.4592H26.7019Z" fill="white"/>
</g>
<defs>
<clipPath id="clip0_1_1323">
<rect width="256.554" height="94.75" fill="white"/>
</clipPath>
</defs>
</svg>
