<svg width="176" height="65" viewBox="0 0 176 65" fill="none" xmlns="http://www.w3.org/2000/svg">
<path d="M107.611 18.498V19.2006C106.838 19.224 106.253 19.3177 105.855 19.4816C105.48 19.6222 105.222 19.9032 105.082 20.3248C104.965 20.7229 104.906 21.3553 104.906 22.2218V39.6467C104.906 40.49 104.965 41.1222 105.082 41.5438C105.222 41.9654 105.48 42.2465 105.855 42.3869C106.253 42.5275 106.838 42.6211 107.611 42.668V43.3706C107.049 43.3238 106.323 43.3003 105.433 43.3003C104.543 43.2769 103.583 43.2652 102.552 43.2652C101.498 43.2652 100.409 43.2886 99.2851 43.3355C98.1609 43.3589 97.0718 43.3706 96.0179 43.3706C95.409 43.3706 94.7415 43.3589 94.0155 43.3355C93.3129 43.3121 92.6102 43.3003 91.9076 43.3003C91.205 43.2769 90.5492 43.2652 89.9403 43.2652C89.0035 43.2652 87.973 43.2886 86.8488 43.3355C85.748 43.3589 84.7058 43.3706 83.7221 43.3706C82.6214 43.3706 81.5206 43.3589 80.4198 43.3355C79.3191 43.2886 78.23 43.2652 77.1527 43.2652C76.1222 43.2652 75.1619 43.2769 74.2719 43.3003C73.382 43.3003 72.6558 43.3238 72.0938 43.3706V42.668C72.8666 42.6211 73.4405 42.5275 73.8152 42.3869C74.2134 42.2465 74.471 41.9654 74.5881 41.5438C74.7286 41.1222 74.7989 40.49 74.7989 39.6467V22.2218C74.7989 21.3553 74.7286 20.7229 74.5881 20.3248C74.471 19.9032 74.2134 19.6222 73.8152 19.4816C73.4405 19.3177 72.8666 19.224 72.0938 19.2006V18.498C72.6793 18.5214 73.4288 18.5448 74.3422 18.5682C75.2556 18.5917 76.2393 18.6034 77.2932 18.6034C78.1598 18.6034 79.0146 18.5917 79.8577 18.5682C80.7009 18.5448 81.4035 18.5214 81.9656 18.498V19.2006C81.3098 19.224 80.818 19.3177 80.4901 19.4816C80.1622 19.6222 79.928 19.9032 79.7875 20.3248C79.6704 20.7229 79.6118 21.3553 79.6118 22.2218V39.6467C79.6118 40.49 79.6821 41.1339 79.8226 41.5789C79.9631 42.0005 80.2325 42.2933 80.6306 42.4572C81.0522 42.5977 81.6611 42.668 82.4574 42.668H84.6004C85.3967 42.668 85.9939 42.5977 86.3921 42.4572C86.8136 42.2933 87.0947 42.0005 87.2352 41.5789C87.3757 41.1339 87.446 40.49 87.446 39.6467V22.2218C87.446 21.3553 87.3875 20.7229 87.2704 20.3248C87.1532 19.9032 86.9308 19.6222 86.6029 19.4816C86.275 19.3177 85.7714 19.224 85.0922 19.2006V18.498C85.6543 18.5214 86.3569 18.5448 87.2001 18.5682C88.0666 18.5917 88.9215 18.6034 89.7646 18.6034C90.7483 18.6034 91.6734 18.5917 92.54 18.5682C93.4065 18.5448 94.0974 18.5214 94.6127 18.498V19.2006C93.9569 19.224 93.4534 19.3177 93.1021 19.4816C92.7508 19.6222 92.5166 19.9032 92.3995 20.3248C92.3058 20.7229 92.2589 21.3553 92.2589 22.2218V39.6467C92.2589 40.49 92.3292 41.1339 92.4697 41.5789C92.6336 42.0005 92.9264 42.2816 93.348 42.4221C93.7696 42.5626 94.3551 42.6446 95.1045 42.668H97.2475C98.0438 42.668 98.641 42.5977 99.0392 42.4572C99.4607 42.2933 99.7418 42.0005 99.8823 41.5789C100.023 41.1339 100.093 40.49 100.093 39.6467V22.2218C100.093 21.3553 100.035 20.7229 99.9174 20.3248C99.8003 19.9032 99.5778 19.6222 99.25 19.4816C98.9221 19.3177 98.4184 19.224 97.7393 19.2006V18.498C98.3013 18.5214 99.004 18.5448 99.8472 18.5682C100.714 18.5917 101.569 18.6034 102.412 18.6034C103.466 18.6034 104.449 18.5917 105.363 18.5682C106.3 18.5448 107.049 18.5214 107.611 18.498ZM110.141 18.498C110.726 18.5214 111.476 18.5448 112.389 18.5682C113.303 18.5917 114.216 18.6034 115.129 18.6034C116.277 18.6034 117.366 18.5917 118.397 18.5682C119.427 18.5448 120.153 18.5331 120.575 18.5331C123.338 18.5331 125.399 19.0484 126.758 20.0789C128.139 21.1094 128.83 22.4326 128.83 24.0487C128.83 24.8684 128.608 25.6881 128.163 26.5078C127.741 27.3275 127.05 28.0653 126.09 28.7211C125.153 29.3768 123.924 29.8687 122.401 30.1965V30.2668C124.462 30.4542 126.09 30.8757 127.285 31.5315C128.503 32.1639 129.369 32.925 129.884 33.815C130.4 34.6816 130.657 35.595 130.657 36.5552C130.657 37.9839 130.282 39.2135 129.533 40.244C128.807 41.251 127.753 42.0239 126.371 42.5626C124.989 43.1013 123.327 43.3706 121.383 43.3706C120.867 43.3706 120.083 43.3589 119.029 43.3355C117.975 43.2886 116.699 43.2652 115.2 43.2652C114.239 43.2652 113.303 43.2769 112.389 43.3003C111.476 43.3003 110.726 43.3238 110.141 43.3706V42.668C110.914 42.6211 111.487 42.5275 111.862 42.3869C112.26 42.2465 112.518 41.9654 112.635 41.5438C112.776 41.1222 112.846 40.49 112.846 39.6467V22.2218C112.846 21.3553 112.776 20.7229 112.635 20.3248C112.518 19.9032 112.26 19.6222 111.862 19.4816C111.487 19.3177 110.914 19.224 110.141 19.2006V18.498ZM119.977 19.2006C119.017 19.2006 118.385 19.3997 118.08 19.7978C117.799 20.196 117.659 21.004 117.659 22.2218V39.6467C117.659 40.4665 117.729 41.0871 117.87 41.5087C118.01 41.9302 118.256 42.2113 118.607 42.3518C118.959 42.4923 119.474 42.5626 120.153 42.5626C122.074 42.5626 123.455 42.0356 124.299 40.9817C125.165 39.9044 125.598 38.382 125.598 36.4147C125.598 34.6113 125.13 33.2178 124.193 32.2341C123.28 31.2505 121.757 30.7586 119.626 30.7586H116.429C116.429 30.7586 116.429 30.665 116.429 30.4776C116.429 30.2668 116.429 30.1614 116.429 30.1614H119.45C120.645 30.1614 121.57 29.9038 122.226 29.3885C122.882 28.8499 123.327 28.1472 123.561 27.2807C123.795 26.3907 123.912 25.4422 123.912 24.4351C123.912 22.702 123.608 21.4021 122.999 20.5356C122.39 19.6456 121.383 19.2006 119.977 19.2006ZM151.397 18.498C151.304 19.4582 151.233 20.395 151.186 21.3084C151.163 22.1984 151.151 22.8776 151.151 23.346C151.151 23.791 151.163 24.2243 151.186 24.6459C151.21 25.044 151.233 25.3836 151.257 25.6647H150.449C150.261 24.0487 149.957 22.7839 149.535 21.8705C149.114 20.9337 148.54 20.2779 147.814 19.9032C147.111 19.5051 146.186 19.306 145.039 19.306H143.106C142.404 19.306 141.865 19.3645 141.49 19.4816C141.116 19.5987 140.858 19.8447 140.718 20.2194C140.6 20.5941 140.542 21.1679 140.542 21.9408V39.9278C140.542 40.6772 140.6 41.251 140.718 41.6492C140.858 42.0239 141.116 42.2698 141.49 42.3869C141.865 42.504 142.404 42.5626 143.106 42.5626H145.109C146.303 42.5626 147.299 42.3401 148.095 41.8951C148.915 41.4501 149.57 40.7241 150.062 39.717C150.554 38.6865 150.917 37.2813 151.151 35.5013H151.959C151.889 36.2273 151.854 37.1642 151.854 38.3118C151.854 38.8036 151.866 39.5179 151.889 40.4547C151.936 41.3916 152.006 42.3636 152.1 43.3706C150.905 43.3238 149.559 43.3003 148.06 43.3003C146.561 43.2769 145.226 43.2652 144.055 43.2652C143.516 43.2652 142.802 43.2652 141.912 43.2652C141.045 43.2652 140.097 43.2769 139.066 43.3003C138.059 43.3003 137.029 43.3121 135.975 43.3355C134.944 43.3355 133.961 43.3472 133.024 43.3706V42.668C133.797 42.6211 134.371 42.5275 134.745 42.3869C135.143 42.2465 135.401 41.9654 135.518 41.5438C135.659 41.1222 135.729 40.49 135.729 39.6467V22.2218C135.729 21.3553 135.659 20.7229 135.518 20.3248C135.401 19.9032 135.143 19.6222 134.745 19.4816C134.371 19.3177 133.797 19.224 133.024 19.2006V18.498C133.961 18.5214 134.944 18.5448 135.975 18.5682C137.029 18.5682 138.059 18.58 139.066 18.6034C140.097 18.6034 141.045 18.6034 141.912 18.6034C142.802 18.6034 143.516 18.6034 144.055 18.6034C145.132 18.6034 146.35 18.6034 147.709 18.6034C149.09 18.58 150.32 18.5448 151.397 18.498ZM145.741 30.5127C145.741 30.5127 145.741 30.6298 145.741 30.864C145.741 31.0982 145.741 31.2153 145.741 31.2153H139.488C139.488 31.2153 139.488 31.0982 139.488 30.864C139.488 30.6298 139.488 30.5127 139.488 30.5127H145.741ZM146.76 25.8755C146.666 27.2104 146.619 28.2292 146.619 28.9318C146.643 29.6345 146.655 30.2785 146.655 30.864C146.655 31.4495 146.666 32.0936 146.69 32.7962C146.713 33.4988 146.772 34.5176 146.865 35.8526H146.057C145.94 35.0563 145.753 34.3069 145.495 33.6042C145.261 32.8782 144.875 32.3044 144.336 31.8828C143.821 31.4378 143.071 31.2153 142.088 31.2153V30.5127C142.814 30.5127 143.399 30.3605 143.844 30.056C144.313 29.7516 144.687 29.3651 144.968 28.8967C145.249 28.4049 145.46 27.9013 145.601 27.3861C145.765 26.8474 145.882 26.3439 145.952 25.8755H146.76ZM154.981 18.498C155.566 18.5214 156.316 18.5448 157.229 18.5682C158.142 18.5917 159.056 18.6034 159.969 18.6034C161.117 18.6034 162.206 18.5917 163.236 18.5682C164.267 18.5448 164.993 18.5331 165.414 18.5331C168.553 18.5331 170.883 19.1772 172.406 20.4653C173.951 21.7534 174.724 23.4163 174.724 25.4539C174.724 26.297 174.572 27.187 174.267 28.1238C173.963 29.0372 173.436 29.8921 172.687 30.6884C171.937 31.4613 170.907 32.0936 169.595 32.5854C168.307 33.0773 166.656 33.3232 164.642 33.3232H161.129V32.6206H164.29C165.766 32.6206 166.89 32.3044 167.663 31.672C168.459 31.0397 168.986 30.2083 169.244 29.1778C169.525 28.1472 169.665 27.0348 169.665 25.8403C169.665 23.6154 169.302 21.9525 168.576 20.8517C167.85 19.751 166.597 19.2006 164.817 19.2006C163.857 19.2006 163.225 19.3997 162.92 19.7978C162.639 20.196 162.499 21.004 162.499 22.2218V39.5062C162.499 40.3962 162.592 41.0637 162.78 41.5087C162.967 41.9537 163.33 42.2465 163.869 42.3869C164.407 42.5275 165.18 42.6094 166.187 42.6329V43.3706C165.508 43.3238 164.63 43.3003 163.553 43.3003C162.475 43.2769 161.363 43.2652 160.215 43.2652C159.231 43.2652 158.283 43.2769 157.37 43.3003C156.456 43.3003 155.66 43.3238 154.981 43.3706V42.668C155.753 42.6211 156.327 42.5275 156.702 42.3869C157.1 42.2465 157.358 41.9654 157.475 41.5438C157.615 41.1222 157.686 40.49 157.686 39.6467V22.2218C157.686 21.3553 157.615 20.7229 157.475 20.3248C157.358 19.9032 157.1 19.6222 156.702 19.4816C156.327 19.3177 155.753 19.224 154.981 19.2006V18.498Z" fill="white"/>
<path d="M77.1093 51.5049C77.0837 51.7733 77.0646 52.0321 77.0518 52.2813C77.0454 52.5241 77.0422 52.7127 77.0422 52.8469C77.0422 52.9683 77.0454 53.0897 77.0518 53.2111C77.0582 53.3261 77.0646 53.422 77.071 53.4987H76.8505C76.7738 53.0386 76.6684 52.6775 76.5342 52.4155C76.4 52.1535 76.2498 51.9682 76.0837 51.8596C75.9239 51.7509 75.7514 51.6966 75.5661 51.6966H75.2498V55.4636C75.2498 55.7768 75.3296 55.9876 75.4894 56.0963C75.6555 56.1985 75.876 56.2496 76.1508 56.2496V56.4509C75.991 56.4445 75.7674 56.4381 75.4798 56.4318C75.1986 56.419 74.8951 56.4126 74.5692 56.4126C74.2497 56.4126 73.943 56.419 73.649 56.4318C73.3615 56.4381 73.1346 56.4445 72.9685 56.4509V56.2496C73.256 56.2496 73.4765 56.2081 73.6298 56.125C73.7896 56.0356 73.8695 55.8343 73.8695 55.5212V51.6966H73.5148C73.3423 51.6966 73.1761 51.7509 73.0164 51.8596C72.8566 51.9682 72.7128 52.1535 72.585 52.4155C72.4636 52.6775 72.3614 53.0386 72.2783 53.4987H72.0579C72.0706 53.422 72.077 53.3261 72.077 53.2111C72.0834 53.0961 72.0866 52.9747 72.0866 52.8469C72.0866 52.7127 72.0802 52.5241 72.0674 52.2813C72.061 52.0321 72.0451 51.7733 72.0195 51.5049H73.0356C73.2145 51.5049 73.4413 51.5113 73.7161 51.5241C73.9909 51.5305 74.2689 51.5337 74.55 51.5337C74.844 51.5337 75.1283 51.5305 75.4031 51.5241C75.6843 51.5113 75.9143 51.5049 76.0933 51.5049H77.1093ZM80.0617 51.3611C80.624 51.3611 81.0649 51.5273 81.3844 51.8596C81.7039 52.1919 81.8637 52.735 81.8637 53.4891H78.7101L78.691 53.3069H80.6559C80.6623 52.9938 80.6432 52.7063 80.5984 52.4443C80.5537 52.1759 80.4834 51.9618 80.3876 51.8021C80.2917 51.6423 80.1639 51.5624 80.0041 51.5624C79.7805 51.5624 79.5888 51.703 79.429 51.9842C79.2757 52.2653 79.183 52.7318 79.1511 53.3836L79.1798 53.4411C79.1734 53.5178 79.167 53.5977 79.1606 53.6808C79.1606 53.7638 79.1606 53.8501 79.1606 53.9396C79.1606 54.3805 79.2213 54.7384 79.3428 55.0131C79.4706 55.2879 79.6303 55.4892 79.822 55.617C80.0137 55.7384 80.2086 55.7991 80.4067 55.7991C80.5409 55.7991 80.6783 55.78 80.8189 55.7416C80.9659 55.6969 81.1128 55.6202 81.2598 55.5116C81.4068 55.3965 81.5442 55.2368 81.672 55.0323L81.8445 55.0898C81.7678 55.3326 81.6464 55.5691 81.4803 55.7991C81.3141 56.0292 81.1033 56.2177 80.8477 56.3647C80.592 56.5116 80.2853 56.5851 79.9275 56.5851C79.4929 56.5851 79.1095 56.4925 78.7772 56.3071C78.4449 56.1218 78.1829 55.8407 77.9912 55.4636C77.8059 55.0866 77.7133 54.6074 77.7133 54.0258C77.7133 53.4316 77.8123 52.9363 78.0104 52.5401C78.2149 52.1439 78.4929 51.85 78.8443 51.6583C79.2022 51.4602 79.608 51.3611 80.0617 51.3611ZM84.4063 51.4953V51.6966C84.2785 51.6966 84.1826 51.7254 84.1187 51.7829C84.0612 51.8404 84.0644 51.9203 84.1283 52.0225L86.6492 55.7704C86.7259 55.8854 86.8058 55.9908 86.8889 56.0867C86.9783 56.1761 87.0774 56.2305 87.186 56.2496V56.4509C87.0902 56.4445 86.9432 56.4381 86.7451 56.4318C86.5534 56.419 86.3585 56.4126 86.1604 56.4126C85.9303 56.4126 85.6939 56.419 85.4511 56.4318C85.2082 56.4381 85.0293 56.4445 84.9143 56.4509V56.2496C85.0421 56.2496 85.1348 56.2209 85.1923 56.1634C85.2562 56.1059 85.2562 56.026 85.1923 55.9237L82.6713 52.1759C82.5627 52.0161 82.47 51.9011 82.3934 51.8308C82.3231 51.7541 82.2368 51.7094 82.1346 51.6966V51.4953C82.2432 51.5017 82.4061 51.5113 82.6234 51.5241C82.8407 51.5305 83.0579 51.5337 83.2752 51.5337C83.4861 51.5337 83.7002 51.5305 83.9174 51.5241C84.1347 51.5113 84.2976 51.5017 84.4063 51.4953ZM84.1858 54.1409C84.1858 54.1409 84.189 54.16 84.1954 54.1984C84.2082 54.2367 84.2178 54.2751 84.2241 54.3134C84.2369 54.3517 84.2433 54.3709 84.2433 54.3709L83.8599 54.8598C83.6682 55.109 83.5628 55.339 83.5436 55.5499C83.5244 55.7544 83.5787 55.9205 83.7065 56.0483C83.8343 56.1698 84.0101 56.2401 84.2337 56.2592V56.4509C84.1123 56.4445 83.9622 56.4413 83.7832 56.4413C83.6107 56.435 83.4414 56.4318 83.2752 56.4318C83.1091 56.4254 82.9685 56.4222 82.8535 56.4222C82.7129 56.4222 82.5883 56.4254 82.4796 56.4318C82.3774 56.4318 82.2783 56.4381 82.1825 56.4509V56.2592C82.3295 56.2017 82.47 56.1186 82.6042 56.01C82.7384 55.895 82.8886 55.732 83.0547 55.5212L84.1858 54.1409ZM86.908 51.4953V51.687C86.7738 51.7254 86.6333 51.8084 86.4863 51.9362C86.3393 52.0641 86.1859 52.227 86.0262 52.4251L84.9718 53.7479C84.9718 53.7479 84.9654 53.7319 84.9526 53.6999C84.9462 53.6616 84.9367 53.6233 84.9239 53.5849C84.9175 53.5466 84.9143 53.5274 84.9143 53.5274L85.3936 52.8852C85.5661 52.6615 85.6715 52.4634 85.7099 52.2909C85.7482 52.1184 85.7195 51.9778 85.6236 51.8692C85.5341 51.7605 85.3744 51.6998 85.1443 51.687V51.4953C85.3297 51.5017 85.5182 51.5081 85.7099 51.5145C85.9016 51.5209 86.0741 51.5241 86.2275 51.5241C86.3745 51.5241 86.5023 51.5209 86.6109 51.5145C86.7195 51.5081 86.8186 51.5017 86.908 51.4953ZM93.0631 51.5049V51.7062C92.8394 51.7062 92.6797 51.7541 92.5838 51.85C92.4943 51.9458 92.4496 52.128 92.4496 52.3963V55.5595C92.4496 55.8279 92.4943 56.01 92.5838 56.1059C92.6797 56.2017 92.8394 56.2496 93.0631 56.2496V56.4509C92.948 56.4445 92.7659 56.4381 92.5167 56.4318C92.2739 56.419 92.0342 56.4126 91.7978 56.4126C91.555 56.4126 91.3154 56.419 91.0789 56.4318C90.8489 56.4381 90.6731 56.4445 90.5517 56.4509V56.2496C90.7434 56.2496 90.8776 56.2017 90.9543 56.1059C91.031 56.01 91.0693 55.8279 91.0693 55.5595V52.3963C91.0693 52.128 91.031 51.9458 90.9543 51.85C90.8776 51.7541 90.7434 51.7062 90.5517 51.7062V51.5049C90.6667 51.5113 90.8361 51.5209 91.0597 51.5337C91.2834 51.5401 91.5103 51.5433 91.7403 51.5433C91.9895 51.5433 92.2387 51.5401 92.488 51.5337C92.7436 51.5209 92.9353 51.5113 93.0631 51.5049ZM89.9287 51.5049V51.7062C89.7434 51.7062 89.6092 51.7541 89.5261 51.85C89.4494 51.9458 89.4111 52.128 89.4111 52.3963V55.5595C89.4111 55.8279 89.4494 56.01 89.5261 56.1059C89.6092 56.2017 89.7434 56.2496 89.9287 56.2496V56.4509C89.8137 56.4445 89.6443 56.4381 89.4207 56.4318C89.2034 56.419 88.9765 56.4126 88.7401 56.4126C88.4973 56.4126 88.2481 56.419 87.9924 56.4318C87.7368 56.4381 87.5451 56.4445 87.4173 56.4509V56.2496C87.641 56.2496 87.7975 56.2017 87.887 56.1059C87.9829 56.01 88.0308 55.8279 88.0308 55.5595V52.3963C88.0308 52.128 87.9829 51.9458 87.887 51.85C87.7975 51.7541 87.641 51.7062 87.4173 51.7062V51.5049C87.5387 51.5113 87.7209 51.5209 87.9637 51.5337C88.2129 51.5401 88.4525 51.5433 88.6826 51.5433C88.9318 51.5433 89.1714 51.5401 89.4015 51.5337C89.6379 51.5209 89.8137 51.5113 89.9287 51.5049ZM91.5678 53.8054V53.9971H88.8647V53.8054H91.5678ZM99.3388 51.5049V51.7062C99.1151 51.7062 98.9553 51.7541 98.8595 51.85C98.77 51.9458 98.7253 52.128 98.7253 52.3963V55.5595C98.7253 55.8279 98.77 56.01 98.8595 56.1059C98.9553 56.2017 99.1151 56.2496 99.3388 56.2496V56.4509C99.2237 56.4445 99.0416 56.4381 98.7924 56.4318C98.5496 56.419 98.3099 56.4126 98.0735 56.4126C97.8307 56.4126 97.591 56.419 97.3546 56.4318C97.1245 56.4381 96.9488 56.4445 96.8274 56.4509V56.2496C97.0191 56.2496 97.1533 56.2017 97.23 56.1059C97.3067 56.01 97.345 55.8279 97.345 55.5595V52.3963C97.345 52.128 97.3067 51.9458 97.23 51.85C97.1533 51.7541 97.0191 51.7062 96.8274 51.7062V51.5049C96.9424 51.5113 97.1118 51.5209 97.3354 51.5337C97.5591 51.5401 97.7859 51.5433 98.016 51.5433C98.2652 51.5433 98.5144 51.5401 98.7636 51.5337C99.0192 51.5209 99.2109 51.5113 99.3388 51.5049ZM96.0318 51.5049V51.7062C95.8465 51.7062 95.7123 51.7541 95.6292 51.85C95.5526 51.9458 95.5142 52.128 95.5142 52.3963V55.5595C95.5142 55.8279 95.5526 56.01 95.6292 56.1059C95.7123 56.2017 95.8465 56.2496 96.0318 56.2496V56.4509C95.9168 56.4445 95.7475 56.4381 95.5238 56.4318C95.3065 56.419 95.0797 56.4126 94.8432 56.4126C94.6004 56.4126 94.3512 56.419 94.0956 56.4318C93.84 56.4381 93.6483 56.4445 93.5205 56.4509V56.2496C93.7441 56.2496 93.9007 56.2017 93.9902 56.1059C94.086 56.01 94.1339 55.8279 94.1339 55.5595V52.3963C94.1339 52.128 94.086 51.9458 93.9902 51.85C93.9007 51.7541 93.7441 51.7062 93.5205 51.7062V51.5049C93.6419 51.5113 93.824 51.5209 94.0668 51.5337C94.3161 51.5401 94.5557 51.5433 94.7857 51.5433C95.035 51.5433 95.2746 51.5401 95.5046 51.5337C95.7411 51.5209 95.9168 51.5113 96.0318 51.5049ZM97.46 52.0896L97.623 52.1855L95.3417 56.0483L95.1787 55.9525L97.46 52.0896ZM105.064 51.5049V51.7062C104.84 51.7062 104.68 51.7541 104.584 51.85C104.495 51.9458 104.45 52.128 104.45 52.3963V55.5595C104.45 55.8279 104.495 56.01 104.584 56.1059C104.68 56.2017 104.84 56.2496 105.064 56.2496V56.4509C104.942 56.4445 104.766 56.4381 104.536 56.4318C104.306 56.419 104.048 56.4126 103.76 56.4126C103.472 56.4126 103.175 56.419 102.869 56.4318C102.568 56.4381 102.335 56.4445 102.169 56.4509V56.2496C102.456 56.2496 102.677 56.1985 102.83 56.0963C102.99 55.9876 103.07 55.7768 103.07 55.4636V52.3963C103.07 52.128 103.032 51.9458 102.955 51.85C102.878 51.7541 102.744 51.7062 102.552 51.7062V51.5049C102.667 51.5113 102.837 51.5209 103.06 51.5337C103.284 51.5401 103.514 51.5433 103.75 51.5433C103.993 51.5433 104.239 51.5401 104.488 51.5337C104.744 51.5209 104.936 51.5113 105.064 51.5049ZM102.169 51.5049V51.7062C101.984 51.7062 101.849 51.7541 101.766 51.85C101.69 51.9458 101.651 52.128 101.651 52.3963V53.2782C101.651 53.5018 101.664 53.6904 101.69 53.8437C101.715 53.9971 101.779 54.1121 101.881 54.1888C101.984 54.2655 102.143 54.3038 102.361 54.3038C102.508 54.3038 102.645 54.2878 102.773 54.2559C102.907 54.2239 103.019 54.176 103.108 54.1121V54.3134C102.974 54.3901 102.77 54.4636 102.495 54.5339C102.22 54.5978 101.932 54.6297 101.632 54.6297C101.383 54.6297 101.169 54.601 100.99 54.5435C100.811 54.4859 100.67 54.4061 100.568 54.3038C100.44 54.176 100.357 54.0227 100.319 53.8437C100.287 53.6584 100.271 53.4411 100.271 53.1919V52.3963C100.271 52.128 100.223 51.9458 100.127 51.85C100.038 51.7541 99.8813 51.7062 99.6577 51.7062V51.5049C99.7791 51.5113 99.9612 51.5209 100.204 51.5337C100.447 51.5401 100.69 51.5433 100.932 51.5433C101.169 51.5433 101.402 51.5401 101.632 51.5337C101.868 51.5209 102.047 51.5113 102.169 51.5049ZM107.994 51.3611C108.556 51.3611 108.997 51.5273 109.316 51.8596C109.636 52.1919 109.796 52.735 109.796 53.4891H106.642L106.623 53.3069H108.588C108.594 52.9938 108.575 52.7063 108.53 52.4443C108.486 52.1759 108.415 51.9618 108.32 51.8021C108.224 51.6423 108.096 51.5624 107.936 51.5624C107.712 51.5624 107.521 51.703 107.361 51.9842C107.208 52.2653 107.115 52.7318 107.083 53.3836L107.112 53.4411C107.105 53.5178 107.099 53.5977 107.093 53.6808C107.093 53.7638 107.093 53.8501 107.093 53.9396C107.093 54.3805 107.153 54.7384 107.275 55.0131C107.403 55.2879 107.562 55.4892 107.754 55.617C107.946 55.7384 108.141 55.7991 108.339 55.7991C108.473 55.7991 108.61 55.78 108.751 55.7416C108.898 55.6969 109.045 55.6202 109.192 55.5116C109.339 55.3965 109.476 55.2368 109.604 55.0323L109.776 55.0898C109.7 55.3326 109.578 55.5691 109.412 55.7991C109.246 56.0292 109.035 56.2177 108.78 56.3647C108.524 56.5116 108.217 56.5851 107.859 56.5851C107.425 56.5851 107.041 56.4925 106.709 56.3071C106.377 56.1218 106.115 55.8407 105.923 55.4636C105.738 55.0866 105.645 54.6074 105.645 54.0258C105.645 53.4316 105.744 52.9363 105.942 52.5401C106.147 52.1439 106.425 51.85 106.776 51.6583C107.134 51.4602 107.54 51.3611 107.994 51.3611ZM112.843 51.3611C113.092 51.3611 113.319 51.3899 113.523 51.4474C113.734 51.4985 113.907 51.5656 114.041 51.6487C114.207 51.7509 114.335 51.8787 114.424 52.0321C114.52 52.1791 114.568 52.3516 114.568 52.5497C114.568 52.7734 114.498 52.9587 114.357 53.1057C114.217 53.2462 114.035 53.3165 113.811 53.3165C113.587 53.3165 113.408 53.2526 113.274 53.1248C113.14 52.997 113.073 52.8245 113.073 52.6072C113.073 52.4027 113.137 52.2334 113.265 52.0992C113.392 51.9586 113.539 51.866 113.706 51.8212C113.654 51.7573 113.578 51.703 113.476 51.6583C113.373 51.6135 113.258 51.5912 113.13 51.5912C112.932 51.5912 112.757 51.6487 112.603 51.7637C112.456 51.8787 112.332 52.0385 112.229 52.243C112.127 52.4475 112.047 52.6871 111.99 52.9619C111.939 53.2367 111.913 53.537 111.913 53.8629C111.913 54.3549 111.974 54.7415 112.095 55.0227C112.223 55.3039 112.383 55.502 112.575 55.617C112.773 55.732 112.977 55.7895 113.188 55.7895C113.309 55.7895 113.44 55.7704 113.581 55.732C113.728 55.6937 113.875 55.617 114.022 55.502C114.175 55.387 114.316 55.224 114.444 55.0131L114.607 55.0706C114.536 55.3071 114.421 55.5435 114.262 55.78C114.102 56.0164 113.894 56.2113 113.638 56.3647C113.383 56.5116 113.07 56.5851 112.699 56.5851C112.284 56.5851 111.907 56.4957 111.568 56.3167C111.236 56.1314 110.967 55.8502 110.763 55.4732C110.565 55.0898 110.466 54.5978 110.466 53.9971C110.466 53.422 110.568 52.9395 110.772 52.5497C110.983 52.1535 111.268 51.8564 111.626 51.6583C111.983 51.4602 112.389 51.3611 112.843 51.3611ZM119.525 51.3611C119.838 51.3611 120.065 51.4346 120.205 51.5816C120.352 51.7286 120.426 51.9075 120.426 52.1184C120.426 52.342 120.359 52.521 120.224 52.6551C120.09 52.7893 119.918 52.8564 119.707 52.8564C119.585 52.8564 119.464 52.8309 119.343 52.7798C119.221 52.7286 119.122 52.652 119.045 52.5497C118.969 52.4411 118.93 52.3069 118.93 52.1471C118.93 52.0513 118.956 51.9554 119.007 51.8596C119.058 51.7637 119.141 51.6838 119.256 51.6199C119.103 51.6391 118.982 51.6966 118.892 51.7925C118.809 51.8819 118.739 52.0129 118.681 52.1855C118.63 52.3516 118.566 52.5625 118.49 52.8181C118.438 52.997 118.378 53.16 118.307 53.3069C118.244 53.4475 118.151 53.5689 118.029 53.6712C117.914 53.767 117.751 53.8373 117.541 53.8821L117.579 53.815C118.065 53.7511 118.464 53.767 118.777 53.8629C119.097 53.9587 119.339 54.1185 119.506 54.3422C119.633 54.5083 119.732 54.7128 119.803 54.9556C119.873 55.1984 119.962 55.4541 120.071 55.7224C120.141 55.8886 120.212 56.0132 120.282 56.0963C120.359 56.1793 120.477 56.2305 120.637 56.2496V56.4509C120.522 56.4701 120.407 56.4829 120.292 56.4893C120.177 56.502 120.065 56.5084 119.956 56.5084C119.585 56.5084 119.292 56.4381 119.074 56.2976C118.857 56.1506 118.707 55.9078 118.624 55.5691C118.605 55.4796 118.573 55.3614 118.528 55.2144C118.49 55.0611 118.435 54.9045 118.365 54.7447C118.301 54.5786 118.224 54.4412 118.135 54.3326C118.026 54.1984 117.886 54.1025 117.713 54.045C117.541 53.9875 117.323 53.9715 117.061 53.9971V53.8246C117.362 53.8054 117.592 53.7543 117.751 53.6712C117.911 53.5817 118.033 53.4539 118.116 53.2878C118.199 53.1216 118.275 52.9108 118.346 52.6551C118.422 52.4059 118.499 52.1823 118.576 51.9842C118.652 51.7861 118.761 51.6327 118.902 51.5241C119.049 51.4154 119.256 51.3611 119.525 51.3611ZM117.675 51.5049V51.7062C117.464 51.7062 117.314 51.7541 117.224 51.85C117.141 51.9458 117.1 52.128 117.1 52.3963V55.5595C117.1 55.8279 117.141 56.01 117.224 56.1059C117.314 56.2017 117.464 56.2496 117.675 56.2496V56.4509C117.553 56.4445 117.368 56.4381 117.119 56.4318C116.87 56.419 116.627 56.4126 116.39 56.4126C116.148 56.4126 115.902 56.419 115.652 56.4318C115.409 56.4381 115.227 56.4445 115.106 56.4509V56.2496C115.33 56.2496 115.486 56.2017 115.576 56.1059C115.671 56.01 115.719 55.8279 115.719 55.5595V52.3963C115.719 52.128 115.671 51.9458 115.576 51.85C115.486 51.7541 115.33 51.7062 115.106 51.7062V51.5049C115.234 51.5113 115.425 51.5209 115.681 51.5337C115.943 51.5401 116.192 51.5433 116.429 51.5433C116.672 51.5433 116.911 51.5401 117.148 51.5337C117.384 51.5209 117.56 51.5113 117.675 51.5049ZM123.373 51.3611C123.84 51.3611 124.249 51.4474 124.6 51.6199C124.952 51.7925 125.226 52.0704 125.424 52.4539C125.623 52.8373 125.722 53.3453 125.722 53.9779C125.722 54.6105 125.623 55.1186 125.424 55.502C125.226 55.879 124.952 56.1538 124.6 56.3263C124.249 56.4989 123.84 56.5851 123.373 56.5851C122.919 56.5851 122.514 56.4989 122.156 56.3263C121.804 56.1538 121.526 55.879 121.322 55.502C121.124 55.1186 121.025 54.6105 121.025 53.9779C121.025 53.3453 121.124 52.8373 121.322 52.4539C121.526 52.0704 121.804 51.7925 122.156 51.6199C122.514 51.4474 122.919 51.3611 123.373 51.3611ZM123.373 51.5528C123.118 51.5528 122.903 51.7445 122.731 52.128C122.558 52.505 122.472 53.1216 122.472 53.9779C122.472 54.8342 122.558 55.4509 122.731 55.8279C122.903 56.2049 123.118 56.3934 123.373 56.3934C123.635 56.3934 123.849 56.2049 124.015 55.8279C124.188 55.4509 124.274 54.8342 124.274 53.9779C124.274 53.1216 124.188 52.505 124.015 52.128C123.849 51.7445 123.635 51.5528 123.373 51.5528ZM128.793 51.3611C129.355 51.3611 129.796 51.5273 130.116 51.8596C130.435 52.1919 130.595 52.735 130.595 53.4891H127.441L127.422 53.3069H129.387C129.394 52.9938 129.374 52.7063 129.33 52.4443C129.285 52.1759 129.215 51.9618 129.119 51.8021C129.023 51.6423 128.895 51.5624 128.735 51.5624C128.512 51.5624 128.32 51.703 128.16 51.9842C128.007 52.2653 127.914 52.7318 127.882 53.3836L127.911 53.4411C127.905 53.5178 127.898 53.5977 127.892 53.6808C127.892 53.7638 127.892 53.8501 127.892 53.9396C127.892 54.3805 127.953 54.7384 128.074 55.0131C128.202 55.2879 128.362 55.4892 128.553 55.617C128.745 55.7384 128.94 55.7991 129.138 55.7991C129.272 55.7991 129.41 55.78 129.55 55.7416C129.697 55.6969 129.844 55.6202 129.991 55.5116C130.138 55.3965 130.276 55.2368 130.403 55.0323L130.576 55.0898C130.499 55.3326 130.378 55.5691 130.212 55.7991C130.045 56.0292 129.835 56.2177 129.579 56.3647C129.323 56.5116 129.017 56.5851 128.659 56.5851C128.224 56.5851 127.841 56.4925 127.509 56.3071C127.176 56.1218 126.914 55.8407 126.723 55.4636C126.537 55.0866 126.445 54.6074 126.445 54.0258C126.445 53.4316 126.544 52.9363 126.742 52.5401C126.946 52.1439 127.224 51.85 127.576 51.6583C127.934 51.4602 128.339 51.3611 128.793 51.3611ZM135.343 51.3899V57.2369C135.343 57.5373 135.419 57.7354 135.573 57.8312C135.726 57.9335 135.937 57.9846 136.205 57.9846V58.1859C136.039 58.1795 135.809 58.1699 135.515 58.1571C135.228 58.1507 134.921 58.1475 134.595 58.1475C134.359 58.1475 134.125 58.1507 133.895 58.1571C133.672 58.1699 133.502 58.1795 133.387 58.1859V57.9846C133.598 57.9846 133.745 57.9398 133.828 57.8504C133.918 57.7609 133.962 57.5884 133.962 57.3328V52.5401C133.962 52.2526 133.918 52.0417 133.828 51.9075C133.739 51.7669 133.579 51.6966 133.349 51.6966V51.4953C133.553 51.5145 133.752 51.5241 133.943 51.5241C134.205 51.5241 134.454 51.5145 134.691 51.4953C134.927 51.4698 135.145 51.4346 135.343 51.3899ZM136.828 51.3611C137.154 51.3611 137.445 51.4506 137.701 51.6295C137.956 51.8021 138.161 52.0672 138.314 52.4251C138.467 52.7766 138.544 53.2175 138.544 53.7479C138.544 54.2144 138.49 54.6233 138.381 54.9748C138.279 55.3263 138.129 55.6234 137.931 55.8662C137.739 56.1027 137.506 56.2816 137.231 56.403C136.963 56.5244 136.659 56.5851 136.32 56.5851C136.071 56.5851 135.844 56.5404 135.64 56.4509C135.435 56.3679 135.279 56.2464 135.17 56.0867L135.266 55.9621C135.33 56.0771 135.419 56.1666 135.534 56.2305C135.656 56.2944 135.793 56.3263 135.947 56.3263C136.234 56.3263 136.461 56.2305 136.627 56.0388C136.793 55.8407 136.911 55.5659 136.982 55.2144C137.058 54.8566 137.097 54.4316 137.097 53.9396C137.097 53.39 137.062 52.9587 136.991 52.6456C136.921 52.3324 136.825 52.1088 136.704 51.9746C136.582 51.8404 136.435 51.7733 136.263 51.7733C136.033 51.7733 135.822 51.8628 135.63 52.0417C135.445 52.2206 135.339 52.4762 135.314 52.8085L135.266 52.473C135.381 52.1088 135.576 51.834 135.851 51.6487C136.132 51.457 136.458 51.3611 136.828 51.3611ZM141.608 51.3611C142.17 51.3611 142.611 51.5273 142.93 51.8596C143.25 52.1919 143.41 52.735 143.41 53.4891H140.256L140.237 53.3069H142.202C142.208 52.9938 142.189 52.7063 142.144 52.4443C142.1 52.1759 142.029 51.9618 141.934 51.8021C141.838 51.6423 141.71 51.5624 141.55 51.5624C141.327 51.5624 141.135 51.703 140.975 51.9842C140.822 52.2653 140.729 52.7318 140.697 53.3836L140.726 53.4411C140.719 53.5178 140.713 53.5977 140.707 53.6808C140.707 53.7638 140.707 53.8501 140.707 53.9396C140.707 54.3805 140.767 54.7384 140.889 55.0131C141.017 55.2879 141.176 55.4892 141.368 55.617C141.56 55.7384 141.755 55.7991 141.953 55.7991C142.087 55.7991 142.224 55.78 142.365 55.7416C142.512 55.6969 142.659 55.6202 142.806 55.5116C142.953 55.3965 143.09 55.2368 143.218 55.0323L143.391 55.0898C143.314 55.3326 143.192 55.5691 143.026 55.7991C142.86 56.0292 142.649 56.2177 142.394 56.3647C142.138 56.5116 141.831 56.5851 141.474 56.5851C141.039 56.5851 140.656 56.4925 140.323 56.3071C139.991 56.1218 139.729 55.8407 139.537 55.4636C139.352 55.0866 139.259 54.6074 139.259 54.0258C139.259 53.4316 139.358 52.9363 139.556 52.5401C139.761 52.1439 140.039 51.85 140.39 51.6583C140.748 51.4602 141.154 51.3611 141.608 51.3611ZM152.352 51.5049V51.7062C152.128 51.7062 151.969 51.7541 151.873 51.85C151.783 51.9458 151.738 52.128 151.738 52.3963V55.5595C151.738 55.8279 151.783 56.01 151.873 56.1059C151.969 56.2017 152.128 56.2496 152.352 56.2496V56.4509C152.275 56.4445 152.167 56.4413 152.026 56.4413C151.885 56.435 151.735 56.4286 151.576 56.4222C151.416 56.4158 151.262 56.4126 151.115 56.4126C150.866 56.4126 150.63 56.419 150.406 56.4318C150.182 56.4445 149.924 56.4509 149.63 56.4509C149.336 56.4509 149.074 56.4445 148.844 56.4318C148.614 56.419 148.396 56.4126 148.192 56.4126C147.981 56.4126 147.761 56.419 147.531 56.4318C147.307 56.4445 147.045 56.4509 146.745 56.4509C146.553 56.4509 146.377 56.4477 146.217 56.4413C146.058 56.435 145.901 56.4286 145.748 56.4222C145.601 56.4158 145.438 56.4126 145.259 56.4126C145.112 56.4126 144.952 56.4158 144.78 56.4222C144.613 56.4286 144.457 56.435 144.31 56.4413C144.169 56.4413 144.054 56.4445 143.965 56.4509V56.2496C144.188 56.2496 144.345 56.2017 144.434 56.1059C144.53 56.01 144.578 55.8279 144.578 55.5595V52.3963C144.578 52.128 144.53 51.9458 144.434 51.85C144.345 51.7541 144.188 51.7062 143.965 51.7062V51.5049C144.086 51.5113 144.268 51.5209 144.511 51.5337C144.76 51.5401 145 51.5433 145.23 51.5433C145.473 51.5433 145.706 51.5401 145.93 51.5337C146.16 51.5209 146.329 51.5113 146.438 51.5049V51.7062C146.265 51.7062 146.141 51.7541 146.064 51.85C145.994 51.9458 145.959 52.128 145.959 52.3963V55.5595C145.959 55.8279 146 56.01 146.083 56.1059C146.166 56.2017 146.307 56.2496 146.505 56.2496H146.955C147.147 56.2496 147.281 56.2017 147.358 56.1059C147.435 56.01 147.473 55.8279 147.473 55.5595V52.3963C147.473 52.128 147.438 51.9458 147.368 51.85C147.297 51.7541 147.173 51.7062 146.994 51.7062V51.5049C147.102 51.5113 147.265 51.5209 147.483 51.5337C147.7 51.5401 147.917 51.5433 148.134 51.5433C148.358 51.5433 148.585 51.5401 148.815 51.5337C149.045 51.5209 149.218 51.5113 149.333 51.5049V51.7062C149.154 51.7062 149.029 51.7541 148.959 51.85C148.888 51.9458 148.853 52.128 148.853 52.3963V55.5595C148.853 55.8279 148.892 56.01 148.968 56.1059C149.045 56.2017 149.179 56.2496 149.371 56.2496H149.841C150.032 56.2496 150.166 56.2017 150.243 56.1059C150.32 56.01 150.358 55.8279 150.358 55.5595V52.3963C150.358 52.128 150.323 51.9458 150.253 51.85C150.182 51.7541 150.058 51.7062 149.879 51.7062V51.5049C149.988 51.5113 150.151 51.5209 150.368 51.5337C150.585 51.5401 150.809 51.5433 151.039 51.5433C151.275 51.5433 151.521 51.5401 151.777 51.5337C152.032 51.5209 152.224 51.5113 152.352 51.5049ZM155.284 51.3611C155.846 51.3611 156.287 51.5273 156.606 51.8596C156.926 52.1919 157.086 52.735 157.086 53.4891H153.932L153.913 53.3069H155.878C155.884 52.9938 155.865 52.7063 155.82 52.4443C155.776 52.1759 155.705 51.9618 155.61 51.8021C155.514 51.6423 155.386 51.5624 155.226 51.5624C155.002 51.5624 154.811 51.703 154.651 51.9842C154.498 52.2653 154.405 52.7318 154.373 53.3836L154.402 53.4411C154.395 53.5178 154.389 53.5977 154.383 53.6808C154.383 53.7638 154.383 53.8501 154.383 53.9396C154.383 54.3805 154.443 54.7384 154.565 55.0131C154.693 55.2879 154.852 55.4892 155.044 55.617C155.236 55.7384 155.431 55.7991 155.629 55.7991C155.763 55.7991 155.9 55.78 156.041 55.7416C156.188 55.6969 156.335 55.6202 156.482 55.5116C156.629 55.3965 156.766 55.2368 156.894 55.0323L157.066 55.0898C156.99 55.3326 156.868 55.5691 156.702 55.7991C156.536 56.0292 156.325 56.2177 156.07 56.3647C155.814 56.5116 155.507 56.5851 155.149 56.5851C154.715 56.5851 154.331 56.4925 153.999 56.3071C153.667 56.1218 153.405 55.8407 153.213 55.4636C153.028 55.0866 152.935 54.6074 152.935 54.0258C152.935 53.4316 153.034 52.9363 153.232 52.5401C153.437 52.1439 153.715 51.85 154.066 51.6583C154.424 51.4602 154.83 51.3611 155.284 51.3611ZM163.286 51.5049V51.7062C163.063 51.7062 162.903 51.7541 162.807 51.85C162.718 51.9458 162.673 52.128 162.673 52.3963V55.5595C162.673 55.8279 162.718 56.01 162.807 56.1059C162.903 56.2017 163.063 56.2496 163.286 56.2496V56.4509C163.171 56.4445 162.989 56.4381 162.74 56.4318C162.497 56.419 162.258 56.4126 162.021 56.4126C161.778 56.4126 161.539 56.419 161.302 56.4318C161.072 56.4381 160.897 56.4445 160.775 56.4509V56.2496C160.967 56.2496 161.101 56.2017 161.178 56.1059C161.254 56.01 161.293 55.8279 161.293 55.5595V52.3963C161.293 52.128 161.254 51.9458 161.178 51.85C161.101 51.7541 160.967 51.7062 160.775 51.7062V51.5049C160.89 51.5113 161.059 51.5209 161.283 51.5337C161.507 51.5401 161.734 51.5433 161.964 51.5433C162.213 51.5433 162.462 51.5401 162.711 51.5337C162.967 51.5209 163.159 51.5113 163.286 51.5049ZM160.152 51.5049V51.7062C159.967 51.7062 159.833 51.7541 159.749 51.85C159.673 51.9458 159.634 52.128 159.634 52.3963V55.5595C159.634 55.8279 159.673 56.01 159.749 56.1059C159.833 56.2017 159.967 56.2496 160.152 56.2496V56.4509C160.037 56.4445 159.868 56.4381 159.644 56.4318C159.427 56.419 159.2 56.4126 158.963 56.4126C158.721 56.4126 158.471 56.419 158.216 56.4318C157.96 56.4381 157.769 56.4445 157.641 56.4509V56.2496C157.864 56.2496 158.021 56.2017 158.11 56.1059C158.206 56.01 158.254 55.8279 158.254 55.5595V52.3963C158.254 52.128 158.206 51.9458 158.11 51.85C158.021 51.7541 157.864 51.7062 157.641 51.7062V51.5049C157.762 51.5113 157.944 51.5209 158.187 51.5337C158.436 51.5401 158.676 51.5433 158.906 51.5433C159.155 51.5433 159.395 51.5401 159.625 51.5337C159.861 51.5209 160.037 51.5113 160.152 51.5049ZM161.791 53.8054V53.9971H159.088V53.8054H161.791ZM169.562 51.5049V51.7062C169.338 51.7062 169.179 51.7541 169.083 51.85C168.993 51.9458 168.949 52.128 168.949 52.3963V55.5595C168.949 55.8279 168.993 56.01 169.083 56.1059C169.179 56.2017 169.338 56.2496 169.562 56.2496V56.4509C169.447 56.4445 169.265 56.4381 169.016 56.4318C168.773 56.419 168.533 56.4126 168.297 56.4126C168.054 56.4126 167.814 56.419 167.578 56.4318C167.348 56.4381 167.172 56.4445 167.051 56.4509V56.2496C167.242 56.2496 167.377 56.2017 167.453 56.1059C167.53 56.01 167.568 55.8279 167.568 55.5595V52.3963C167.568 52.128 167.53 51.9458 167.453 51.85C167.377 51.7541 167.242 51.7062 167.051 51.7062V51.5049C167.166 51.5113 167.335 51.5209 167.559 51.5337C167.782 51.5401 168.009 51.5433 168.239 51.5433C168.489 51.5433 168.738 51.5401 168.987 51.5337C169.243 51.5209 169.434 51.5113 169.562 51.5049ZM166.255 51.5049V51.7062C166.07 51.7062 165.936 51.7541 165.853 51.85C165.776 51.9458 165.738 52.128 165.738 52.3963V55.5595C165.738 55.8279 165.776 56.01 165.853 56.1059C165.936 56.2017 166.07 56.2496 166.255 56.2496V56.4509C166.14 56.4445 165.971 56.4381 165.747 56.4318C165.53 56.419 165.303 56.4126 165.067 56.4126C164.824 56.4126 164.575 56.419 164.319 56.4318C164.063 56.4381 163.872 56.4445 163.744 56.4509V56.2496C163.968 56.2496 164.124 56.2017 164.214 56.1059C164.309 56.01 164.357 55.8279 164.357 55.5595V52.3963C164.357 52.128 164.309 51.9458 164.214 51.85C164.124 51.7541 163.968 51.7062 163.744 51.7062V51.5049C163.865 51.5113 164.047 51.5209 164.29 51.5337C164.539 51.5401 164.779 51.5433 165.009 51.5433C165.258 51.5433 165.498 51.5401 165.728 51.5337C165.964 51.5209 166.14 51.5113 166.255 51.5049ZM167.683 52.0896L167.846 52.1855L165.565 56.0483L165.402 55.9525L167.683 52.0896ZM172.498 51.3611C173.06 51.3611 173.501 51.5273 173.821 51.8596C174.14 52.1919 174.3 52.735 174.3 53.4891H171.146L171.127 53.3069H173.092C173.099 52.9938 173.079 52.7063 173.035 52.4443C172.99 52.1759 172.92 51.9618 172.824 51.8021C172.728 51.6423 172.6 51.5624 172.44 51.5624C172.217 51.5624 172.025 51.703 171.865 51.9842C171.712 52.2653 171.619 52.7318 171.587 53.3836L171.616 53.4411C171.61 53.5178 171.603 53.5977 171.597 53.6808C171.597 53.7638 171.597 53.8501 171.597 53.9396C171.597 54.3805 171.658 54.7384 171.779 55.0131C171.907 55.2879 172.067 55.4892 172.258 55.617C172.45 55.7384 172.645 55.7991 172.843 55.7991C172.977 55.7991 173.115 55.78 173.255 55.7416C173.402 55.6969 173.549 55.6202 173.696 55.5116C173.843 55.3965 173.98 55.2368 174.108 55.0323L174.281 55.0898C174.204 55.3326 174.083 55.5691 173.916 55.7991C173.75 56.0292 173.539 56.2177 173.284 56.3647C173.028 56.5116 172.722 56.5851 172.364 56.5851C171.929 56.5851 171.546 56.4925 171.213 56.3071C170.881 56.1218 170.619 55.8407 170.427 55.4636C170.242 55.0866 170.149 54.6074 170.149 54.0258C170.149 53.4316 170.249 52.9363 170.447 52.5401C170.651 52.1439 170.929 51.85 171.281 51.6583C171.638 51.4602 172.044 51.3611 172.498 51.3611Z" fill="white"/>
<path d="M32.346 63.3471C49.4681 63.3471 63.3483 49.4669 63.3483 32.3448C63.3483 15.2227 49.4681 1.34253 32.346 1.34253C15.224 1.34253 1.34375 15.2227 1.34375 32.3448C1.34375 49.4669 15.224 63.3471 32.346 63.3471Z" stroke="white" stroke-width="2.68524"/>
<path d="M50.8733 19.6919C50.7797 20.6521 50.7094 21.589 50.6626 22.5024C50.6392 23.3923 50.6275 24.0715 50.6275 24.5399C50.6275 24.9849 50.6392 25.4182 50.6626 25.8398C50.686 26.2379 50.7094 26.5775 50.7329 26.8586H49.9248C49.7375 25.2426 49.433 23.9779 49.0115 23.0644C48.5899 22.1276 48.016 21.4719 47.29 21.0971C46.5874 20.699 45.6623 20.4999 44.5147 20.4999H42.5825C41.8799 20.4999 41.3412 20.5585 40.9665 20.6756C40.5918 20.7927 40.3341 21.0386 40.1936 21.4133C40.0765 21.788 40.018 22.3618 40.018 23.1347V41.1217C40.018 41.8711 40.0765 42.445 40.1936 42.8431C40.3341 43.2179 40.5918 43.4637 40.9665 43.5808C41.3412 43.6979 41.8799 43.7565 42.5825 43.7565H44.585C45.7794 43.7565 46.7748 43.534 47.571 43.089C48.3908 42.644 49.0466 41.918 49.5384 40.9109C50.0302 39.8804 50.3933 38.4751 50.6275 36.6952H51.4355C51.3652 37.4212 51.3301 38.358 51.3301 39.5057C51.3301 39.9975 51.3418 40.7118 51.3652 41.6486C51.412 42.5855 51.4823 43.5574 51.576 44.5645C50.3815 44.5176 49.0349 44.4943 47.536 44.4943C46.037 44.4708 44.702 44.4591 43.5311 44.4591C42.9924 44.4591 42.278 44.4591 41.3881 44.4591C40.5215 44.4591 39.573 44.4708 38.5425 44.4943C37.5354 44.4943 36.5049 44.506 35.4509 44.5294C34.4204 44.5294 33.4368 44.5411 32.5 44.5645V43.8619C33.2728 43.8151 33.8466 43.7214 34.2214 43.5808C34.6195 43.4404 34.8771 43.1593 34.9942 42.7377C35.1348 42.3161 35.205 41.6838 35.205 40.8406V23.4158C35.205 22.5492 35.1348 21.9168 34.9942 21.5187C34.8771 21.0971 34.6195 20.8161 34.2214 20.6756C33.8466 20.5116 33.2728 20.4179 32.5 20.3945V19.6919C33.4368 19.7153 34.4204 19.7387 35.4509 19.7622C36.5049 19.7622 37.5354 19.7739 38.5425 19.7973C39.573 19.7973 40.5215 19.7973 41.3881 19.7973C42.278 19.7973 42.9924 19.7973 43.5311 19.7973C44.6083 19.7973 45.8263 19.7973 47.1846 19.7973C48.5664 19.7739 49.7961 19.7387 50.8733 19.6919ZM45.2174 31.7066C45.2174 31.7066 45.2174 31.8237 45.2174 32.058C45.2174 32.2922 45.2174 32.4092 45.2174 32.4092H38.964C38.964 32.4092 38.964 32.2922 38.964 32.058C38.964 31.8237 38.964 31.7066 38.964 31.7066H45.2174ZM46.2361 27.0694C46.1424 28.4043 46.0956 29.4232 46.0956 30.1258C46.119 30.8283 46.1307 31.4724 46.1307 32.058C46.1307 32.6434 46.1424 33.2875 46.1659 33.9902C46.1892 34.6928 46.2478 35.7115 46.3415 37.0465H45.5335C45.4164 36.2502 45.2291 35.5007 44.9714 34.7982C44.7372 34.0721 44.3508 33.4983 43.8121 33.0767C43.2969 32.6317 42.5474 32.4092 41.5637 32.4092V31.7066C42.2897 31.7066 42.8753 31.5544 43.3203 31.2499C43.7887 30.9454 44.1634 30.559 44.4444 30.0906C44.7255 29.5988 44.9362 29.0953 45.0768 28.58C45.2407 28.0413 45.3578 27.5378 45.4281 27.0694H46.2361Z" fill="white"/>
<path d="M13.6832 19.6919C13.7769 20.6521 13.8471 21.589 13.894 22.5024C13.9173 23.3923 13.9291 24.0715 13.9291 24.5399C13.9291 24.9849 13.9173 25.4182 13.894 25.8398C13.8705 26.2379 13.8471 26.5775 13.8237 26.8586H14.6317C14.8191 25.2426 15.1235 23.9779 15.5451 23.0644C15.9667 22.1276 16.5405 21.4719 17.2665 21.0971C17.9691 20.699 18.8943 20.4999 20.0419 20.4999H21.9741C22.6767 20.4999 23.2153 20.5585 23.5901 20.6756C23.9648 20.7927 24.2224 21.0386 24.3629 21.4133C24.48 21.788 24.5386 22.3618 24.5386 23.1347V41.1217C24.5386 41.8711 24.48 42.445 24.3629 42.8431C24.2224 43.2179 23.9648 43.4637 23.5901 43.5808C23.2153 43.6979 22.6767 43.7565 21.9741 43.7565H19.9715C18.7772 43.7565 17.7818 43.534 16.9855 43.089C16.1657 42.644 15.5099 41.918 15.0181 40.9109C14.5263 39.8804 14.1633 38.4751 13.9291 36.6952H13.1211C13.1913 37.4212 13.2265 38.358 13.2265 39.5057C13.2265 39.9975 13.2148 40.7118 13.1913 41.6486C13.1445 42.5855 13.0742 43.5574 12.9805 44.5645C14.175 44.5176 15.5216 44.4943 17.0206 44.4943C18.5195 44.4708 19.8545 44.4591 21.0255 44.4591C21.5641 44.4591 22.2785 44.4591 23.1685 44.4591C24.035 44.4591 24.9836 44.4708 26.0141 44.4943C27.0212 44.4943 28.0517 44.506 29.1056 44.5294C30.1361 44.5294 31.1198 44.5411 32.0566 44.5645V43.8619C31.2837 43.8151 30.7099 43.7214 30.3352 43.5808C29.937 43.4404 29.6794 43.1593 29.5623 42.7377C29.4218 42.3161 29.3515 41.6838 29.3515 40.8406V23.4158C29.3515 22.5492 29.4218 21.9168 29.5623 21.5187C29.6794 21.0971 29.937 20.8161 30.3352 20.6756C30.7099 20.5116 31.2837 20.4179 32.0566 20.3945V19.6919C31.1198 19.7153 30.1361 19.7387 29.1056 19.7622C28.0517 19.7622 27.0212 19.7739 26.0141 19.7973C24.9836 19.7973 24.035 19.7973 23.1685 19.7973C22.2785 19.7973 21.5641 19.7973 21.0255 19.7973C19.9482 19.7973 18.7303 19.7973 17.3719 19.7973C15.9901 19.7739 14.7605 19.7387 13.6832 19.6919ZM19.3392 31.7066C19.3392 31.7066 19.3392 31.8237 19.3392 32.058C19.3392 32.2922 19.3392 32.4092 19.3392 32.4092H25.5925C25.5925 32.4092 25.5925 32.2922 25.5925 32.058C25.5925 31.8237 25.5925 31.7066 25.5925 31.7066H19.3392ZM18.3204 27.0694C18.4141 28.4043 18.461 29.4232 18.461 30.1258C18.4376 30.8283 18.4258 31.4724 18.4258 32.058C18.4258 32.6434 18.4141 33.2875 18.3907 33.9902C18.3673 34.6928 18.3087 35.7115 18.215 37.0465H19.023C19.1401 36.2502 19.3275 35.5007 19.5851 34.7982C19.8194 34.0721 20.2058 33.4983 20.7445 33.0767C21.2597 32.6317 22.0092 32.4092 22.9928 32.4092V31.7066C22.2668 31.7066 21.6813 31.5544 21.2362 31.2499C20.7679 30.9454 20.3931 30.559 20.1121 30.0906C19.8311 29.5988 19.6203 29.0953 19.4797 28.58C19.3158 28.0413 19.1987 27.5378 19.1284 27.0694H18.3204Z" fill="white"/>
</svg>
