<svg width="45" height="45" viewBox="0 0 45 45" fill="none" xmlns="http://www.w3.org/2000/svg">
<g clip-path="url(#clip0_483_1125)">
<path d="M22.3928 43.8557C34.2466 43.8557 43.8559 34.2463 43.8559 22.3926C43.8559 10.5388 34.2466 0.929443 22.3928 0.929443C10.5391 0.929443 0.929688 10.5388 0.929688 22.3926C0.929688 34.2463 10.5391 43.8557 22.3928 43.8557Z" stroke="white" stroke-width="2.68524"/>
<path d="M35.22 13.6328C35.1552 14.2976 35.1065 14.9462 35.0741 15.5785C35.0579 16.1946 35.0498 16.6648 35.0498 16.9891C35.0498 17.2972 35.0579 17.5972 35.0741 17.8891C35.0903 18.1647 35.1065 18.3998 35.1228 18.5944H34.5633C34.4337 17.4756 34.2228 16.6 33.931 15.9676C33.6392 15.3191 33.2418 14.8651 32.7392 14.6056C32.2528 14.33 31.6124 14.1922 30.8179 14.1922H29.4802C28.9938 14.1922 28.6208 14.2328 28.3614 14.3138C28.102 14.3949 27.9236 14.5651 27.8263 14.8246C27.7453 15.084 27.7048 15.4812 27.7048 16.0163V28.4688C27.7048 28.9876 27.7453 29.385 27.8263 29.6606C27.9236 29.92 28.102 30.0902 28.3614 30.1713C28.6208 30.2523 28.9938 30.2929 29.4802 30.2929H30.8665C31.6934 30.2929 32.3826 30.1389 32.9338 29.8308C33.5013 29.5227 33.9553 29.0201 34.2958 28.3229C34.6363 27.6095 34.8877 26.6366 35.0498 25.4043H35.6092C35.5605 25.9069 35.5362 26.5555 35.5362 27.3501C35.5362 27.6905 35.5443 28.1851 35.5605 28.8336C35.5929 29.4822 35.6416 30.1551 35.7065 30.8523C34.8795 30.8198 33.9472 30.8037 32.9095 30.8037C31.8718 30.7874 30.9475 30.7793 30.1369 30.7793C29.764 30.7793 29.2694 30.7793 28.6533 30.7793C28.0533 30.7793 27.3967 30.7874 26.6833 30.8037C25.986 30.8037 25.2726 30.8118 24.5429 30.828C23.8295 30.828 23.1486 30.8361 22.5 30.8523V30.3659C23.035 30.3335 23.4323 30.2686 23.6917 30.1713C23.9673 30.0741 24.1457 29.8795 24.2268 29.5876C24.3241 29.2957 24.3727 28.858 24.3727 28.2742V16.2109C24.3727 15.6109 24.3241 15.1731 24.2268 14.8975C24.1457 14.6056 23.9673 14.4111 23.6917 14.3138C23.4323 14.2003 23.035 14.1354 22.5 14.1192V13.6328C23.1486 13.649 23.8295 13.6652 24.5429 13.6815C25.2726 13.6815 25.986 13.6896 26.6833 13.7058C27.3967 13.7058 28.0533 13.7058 28.6533 13.7058C29.2694 13.7058 29.764 13.7058 30.1369 13.7058C30.8827 13.7058 31.7259 13.7058 32.6663 13.7058C33.6229 13.6896 34.4742 13.6652 35.22 13.6328ZM31.3044 21.9507C31.3044 21.9507 31.3044 22.0317 31.3044 22.194C31.3044 22.3561 31.3044 22.4371 31.3044 22.4371H26.9751C26.9751 22.4371 26.9751 22.3561 26.9751 22.194C26.9751 22.0317 26.9751 21.9507 26.9751 21.9507H31.3044ZM32.0096 18.7403C31.9447 19.6645 31.9123 20.3699 31.9123 20.8563C31.9285 21.3426 31.9366 21.7885 31.9366 22.194C31.9366 22.5992 31.9447 23.0452 31.961 23.5316C31.9771 24.0181 32.0177 24.7233 32.0826 25.6475H31.5232C31.4421 25.0963 31.3125 24.5774 31.134 24.091C30.9719 23.5883 30.7044 23.1911 30.3315 22.8992C29.9748 22.5911 29.4559 22.4371 28.7749 22.4371V21.9507C29.2775 21.9507 29.6829 21.8453 29.991 21.6345C30.3153 21.4237 30.5747 21.1562 30.7692 20.8319C30.9638 20.4914 31.1097 20.1429 31.207 19.7861C31.3205 19.4132 31.4016 19.0646 31.4502 18.7403H32.0096Z" fill="white"/>
<path d="M9.47086 13.6328C9.53573 14.2976 9.58433 14.9462 9.6168 15.5785C9.63293 16.1946 9.6411 16.6648 9.6411 16.9891C9.6411 17.2972 9.63293 17.5972 9.6168 17.8891C9.60053 18.1647 9.58433 18.3998 9.56813 18.5944H10.1275C10.2573 17.4756 10.468 16.6 10.7599 15.9676C11.0517 15.3191 11.449 14.8651 11.9516 14.6056C12.438 14.33 13.0785 14.1922 13.873 14.1922H15.2107C15.6971 14.1922 16.07 14.2328 16.3295 14.3138C16.5889 14.3949 16.7672 14.5651 16.8645 14.8246C16.9456 15.084 16.9861 15.4812 16.9861 16.0163V28.4688C16.9861 28.9876 16.9456 29.385 16.8645 29.6606C16.7672 29.92 16.5889 30.0902 16.3295 30.1713C16.07 30.2523 15.6971 30.2929 15.2107 30.2929H13.8243C12.9975 30.2929 12.3084 30.1389 11.7571 29.8308C11.1895 29.5227 10.7355 29.0201 10.395 28.3229C10.0545 27.6095 9.80324 26.6366 9.6411 25.4043H9.08171C9.13031 25.9069 9.15468 26.5555 9.15468 27.3501C9.15468 27.6905 9.14658 28.1851 9.13031 28.8336C9.09791 29.4822 9.04924 30.1551 8.98438 30.8523C9.81134 30.8198 10.7436 30.8037 11.7814 30.8037C12.8191 30.7874 13.7433 30.7793 14.554 30.7793C14.9269 30.7793 15.4215 30.7793 16.0376 30.7793C16.6375 30.7793 17.2942 30.7874 18.0076 30.8037C18.7049 30.8037 19.4183 30.8118 20.1479 30.828C20.8613 30.828 21.5424 30.8361 22.1909 30.8523V30.3659C21.6558 30.3335 21.2586 30.2686 20.9992 30.1713C20.7235 30.0741 20.5452 29.8795 20.4641 29.5876C20.3668 29.2957 20.3181 28.858 20.3181 28.2742V16.2109C20.3181 15.6109 20.3668 15.1731 20.4641 14.8975C20.5452 14.6056 20.7235 14.4111 20.9992 14.3138C21.2586 14.2003 21.6558 14.1354 22.1909 14.1192V13.6328C21.5424 13.649 20.8613 13.6652 20.1479 13.6815C19.4183 13.6815 18.7049 13.6896 18.0076 13.7058C17.2942 13.7058 16.6375 13.7058 16.0376 13.7058C15.4215 13.7058 14.9269 13.7058 14.554 13.7058C13.8082 13.7058 12.965 13.7058 12.0246 13.7058C11.0679 13.6896 10.2167 13.6652 9.47086 13.6328ZM13.3866 21.9507C13.3866 21.9507 13.3866 22.0317 13.3866 22.194C13.3866 22.3561 13.3866 22.4371 13.3866 22.4371H17.7158C17.7158 22.4371 17.7158 22.3561 17.7158 22.194C17.7158 22.0317 17.7158 21.9507 17.7158 21.9507H13.3866ZM12.6812 18.7403C12.7461 19.6645 12.7786 20.3699 12.7786 20.8563C12.7624 21.3426 12.7542 21.7885 12.7542 22.194C12.7542 22.5992 12.7461 23.0452 12.7299 23.5316C12.7137 24.0181 12.6731 24.7233 12.6083 25.6475H13.1676C13.2487 25.0963 13.3785 24.5774 13.5568 24.091C13.719 23.5883 13.9865 23.1911 14.3595 22.8992C14.7161 22.5911 15.235 22.4371 15.916 22.4371V21.9507C15.4134 21.9507 15.008 21.8453 14.6999 21.6345C14.3757 21.4237 14.1162 21.1562 13.9216 20.8319C13.7271 20.4914 13.5812 20.1429 13.4838 19.7861C13.3704 19.4132 13.2893 19.0646 13.2406 18.7403H12.6812Z" fill="white"/>
</g>
<defs>
<clipPath id="clip0_483_1125">
<rect width="45" height="45" fill="white"/>
</clipPath>
</defs>
</svg>
