<svg width="10" height="7" viewBox="0 0 10 7" fill="none" xmlns="http://www.w3.org/2000/svg">
<path d="M4.65921 6.15367C4.69744 6.20919 4.74859 6.25458 4.80825 6.28594C4.86792 6.3173 4.93431 6.33368 5.00171 6.33368C5.06912 6.33368 5.13551 6.3173 5.19518 6.28594C5.25484 6.25458 5.30599 6.20919 5.34421 6.15367L9.09421 0.737002C9.13762 0.674526 9.16307 0.601349 9.16781 0.525421C9.17255 0.449494 9.15639 0.37372 9.12108 0.306333C9.08578 0.238946 9.03268 0.182522 8.96756 0.143193C8.90244 0.103864 8.82779 0.0831326 8.75171 0.0832525H1.25171C1.17581 0.083566 1.10144 0.104564 1.03658 0.143987C0.971723 0.18341 0.918839 0.239768 0.883617 0.307C0.848394 0.374231 0.832165 0.449792 0.836675 0.525557C0.841185 0.601322 0.866264 0.674424 0.909213 0.737002L4.65921 6.15367Z" fill="white"/>
</svg>
